<svg xmlns="http://www.w3.org/2000/svg" width="41" height="40" fill="none">
  <g clip-path="url(#a)">
    <path fill="#A8ABBE" d="M9.86 4.55c1.14-.01 1.87-.95 2.55-1.79.62-.78 1.26-1.6 2.2-2.11.95-.5 2.07-.5 3.03-.15.24.08.48.18.7.28l.73.38c.92.44 1.9.13 2.85-.2.88-.3 1.73-.66 2.74-.74 1.5-.13 2.79.64 3.65 1.86.13.16.3.45.42.62l.03.05a2 2 0 0 0 .47.75 1 1 0 0 0 .23.17c.06.03.09.02.05.02h.13c2.12.2 4.68.88 5.87 2.9.3.5.52 1.08.67 1.62.25.88.33 1.79.69 2.51.13.26.31.48.54.67l-.2-.13c2.2 1.1 4 3.65 3 6.18-.11.31-.34.83-.46 1.15-.28.72-.58 1.46-.52 2.17.03.32.13.6.33.87a4.62 4.62 0 0 1-.47 5.45c-.42.47-.95.85-1.52 1.1a.68.68 0 0 1-.66-1.19 3.05 3.05 0 0 0 1.36-2.04 2.82 2.82 0 0 0-.48-2.17l.05.07c-.4-.5-.7-1.14-.8-1.78-.22-1.55.37-2.9.89-4.28.01-.06.06-.18.08-.23.2-.6.06-1.18-.28-1.72a4.46 4.46 0 0 0-1.72-1.53c-.23-.2-.47-.4-.66-.64-.22-.27-.42-.59-.56-.9a6.89 6.89 0 0 1-.49-1.61c-.23-1.24-.3-2.49-1.3-3.34-.96-.83-2.32-1.13-3.57-1.33-.66-.03-1.44-.58-1.9-1.35a3.6 3.6 0 0 1-.33-.67l.04.09c-.53-.97-1.29-1.82-2.48-1.73-1.26.1-2.34.71-3.66.96-.7.13-1.5.14-2.19-.1-.18-.05-.35-.14-.52-.21l-.15-.1-.16-.08-.04-.02-.03-.02c-.9-.5-1.93-.86-2.87-.28-.3.18-.6.43-.87.72-.84.91-1.65 2.23-2.9 2.84-.47.24-1 .36-1.54.37a.68.68 0 0 1-.7-.65.69.69 0 0 1 .73-.71Z"/>
    <path fill="#A8ABBE" d="M34 35.15c-.81.51-1.8.76-2.75.7-1.29.04-2.07.64-3.04 1.75a7.18 7.18 0 0 1-1.8 1.6c-.22.13-.5.24-.74.32-.12.03-.26.08-.38.1-.04.02-.34.06-.4.07a7.2 7.2 0 0 1-3.09-.48c-.47-.16-1-.39-1.46-.59-.27-.12-.69-.13-.9.07-.77.58-1.7 1-2.68 1.08-2.43.24-4.54-1.55-5.65-3.54l-.02-.04-.01-.02c.02.05.02.03-.01 0-.19-.11-.4-.18-.65-.27l.17.04c-.48-.05-.98-.1-1.5-.18-1.86-.25-3.54-.99-4.16-2.92-.23-.98-.26-1.98-.53-2.9-.23-.78-.63-1.32-1.4-1.61l-.02-.02-.28-.16c-.18-.1-.37-.26-.53-.38l-.36-.33-.32-.37a4.72 4.72 0 0 1-.51-4.95c.2-.4.48-.8.58-1.25.07-.25.1-.52.09-.78l.05.29c-.41-1.2-.9-2.45-1.03-3.77a5 5 0 0 1 0-.96c.1-1.24.84-2.3 1.7-3.12.65-.63 1.33-1.15 2.01-1.65l-.35.41c.27-.59.43-1.29.6-1.95.28-1.14.57-2.48 1.31-3.54a4.28 4.28 0 0 1 4-1.77 1.2 1.2 0 1 1-.18 2.4c-.52-.04-1.02-.01-1.44.24-.43.27-.7.72-.92 1.22-.56 1.33-.76 2.97-1.43 4.33l-.12.26c-1.07.77-2.86 1.9-3.14 3.18l-.02.1-.02.16c-.04.53.05 1.01.18 1.57.18.77.46 1.6.73 2.42.03.98-.23 1.96-.76 2.78a2.82 2.82 0 0 0-.07 3.03l.16.25.13.16.07.07.21.21.16.13.08.06.26.16c1 .43 1.87 1.35 2.23 2.71.15.55.23 1.07.3 1.57.06.5.11.97.2 1.4l-.02-.09c.37 1.26 1.6 1.63 2.8 1.83l1.54.2c.37.13.78.27 1.13.53.15.11.33.28.46.5l.01.04.04.06c.84 1.49 2.31 2.9 4.12 2.77.7-.05 1.35-.34 1.93-.76l-.05.04c.34-.3.78-.46 1.22-.49.42-.03.82.05 1.2.21l.4.17c.25.12.5.22.76.32 1.07.4 2.38.69 3.3.3.31-.13.6-.34.86-.57.51-.48.9-1 1.43-1.57a5.05 5.05 0 0 1 3.65-1.72c.61.01 1.22-.17 1.71-.52a.88.88 0 1 1 .96 1.46Z"/>
    <path fill="#1951E7" d="M17.34 14.53a3.3 3.3 0 0 1-1.54 3.12c-1.88 1.15-4.62.15-5.18-2.03-.58-2.12.63-4.16 2.88-4.36 2-.15 3.81 1.2 3.84 3.27Zm-1.35.04c.14-2.23-3.11-2.38-3.58-.73-.1.45.05 1 .35 1.36.52.56 1.37.57 2.09.48.16-.02.32-.05.48-.11.42-.16.64-.55.66-1ZM23.7 25.64c.04-.45.1-.9.26-1.37a3.17 3.17 0 0 1 3.85-2.04c1.55.35 2.8 1.64 2.8 3.28a3.43 3.43 0 0 1-4.54 3.35 3.24 3.24 0 0 1-2.36-3.22Zm1.36.08c-.22 1.95 2.7 2.51 3.5.85l-.02.05c.13-.37.18-.7.09-1.04-.16-.62-.83-.9-1.4-1.01-.47-.06-.9-.06-1.34.05-.48.16-.75.6-.83 1.1ZM15.02 27.53c1.91-2.37 3.4-5.06 4.88-7.72a65.83 65.83 0 0 0 3.82-8.23 1.2 1.2 0 1 1 2.2.97 118 118 0 0 1-4.57 8.1c-1.59 2.65-3.4 5.14-4.87 7.85a.88.88 0 1 1-1.46-.97Z"/>
  </g>
  <defs>
    <clipPath id="a">
      <path fill="#fff" d="M.5 0h40v40H.5z"/>
    </clipPath>
  </defs>
</svg>
