<svg xmlns="http://www.w3.org/2000/svg" width="174" height="258" fill="none">
  <g clip-path="url(#a)">
    <mask id="b" fill="#fff">
      <path d="M-186.6 15.6c-.5-.6-1-1.1-1.7-1.5-1-.5-2.2-.7-3-1.5-.5-.5-1.3-2.7.3-2 1 .4 3.2 1 4.2.3 2.5-1.6 3.5 4.3 5.8 4.4 1.3 0 2-1.4 3-.4.6.7 1.2 1.6 1.5 2.5.5 1.2-.2 1.6-1.4 1.5-1-.2-2.1-.6-3.2-1l-3-.6c-1-.2-1.8-1-2.5-1.7Zm13.4-3.2s0 2.4.6 3c.7.5 1 1 1.8 0 .8-.8-.3-1.6-.9-2.6-.6-1-1.4-3.4-1.5-.4Zm-7.6 12.3c-1.2-1-.2-1.8-.2-3.6s-1.6-.5-3.5.7c-1.9 1-2.5-2.2-3-3.1-.5-1 .2-1-3.5-2.4-3.7-1.5-3.4-1.6-5.6-.1-2.3 1.4 1 1.9 3.1 2.8 2.1.8 1.8 2.2 1.2 3.4-.6 1.3-4.4-.5-8.1-2-3.7-1.6-3.6-.7-5.7-.4-2.2.3-5.7-3.2-7.2-4.2s-13.3-3.7-15-4.2c-1.7-.5-3 .5-4.5.7-1.5.2-1.6 2.7-2 3.8-.3 1-2.5-.6-3.8-1-1.3-.4-1.2.4-1.6 1.4-.4.9.2 1.1 1.7 1.5 1.6.4 2.2.8 2 1.9-.3 1-2.2-.1-3.5-.5-1.2-.4-1.3 2-1.6 3.9-.3 1.9 1 2 1.5 2.7.6.7 1.4 1.7-5.3 2.4-6.6.8-.6 1.4.5 1.2a36 36 0 0 1 7.2.3c1.3.3 3.8-.6 5.8-1.5s7 1.3 10.7 2.4c3.7 1.1 4.5 10.1 6 11.9 1.3 1.8-1.4 12-2.4 15-.9 2.9.7 5.6 1.4 6.8.7 1.3 1.6 7.4 3.2 11.8 1.6 4.5 1.7-.5 1.6-2.8-.2-2.4.8 0 .8 0s3.1 6.9 3.3 9.7c.2 2.8 3.7 6.2 6.4 7.2s2.4 1.7 2.4 1.7-.5 1 2.7 2.4c3.1 1.3 1.8 3.7 2.9 5 1 1.5 2.8 3.1 4.7 3.7 1.8.5 1.2.1 1.2 1.6s-2 3-3.2 3.8c-1.2.7-2 3-2.8 5.6-.8 2.7.1 3.6.1 3.6s3 11 4 12.2c1.2 1.2.4 3 .4 3l-4.3 14.6c-.4 1-.5 1-1.7 2-1.3 1-2 3.8-2 3.8l-4 13c-.2.8.9 2.4 4.7 6.2 3.8 3.7 1.6-.9 1.3-1.9-.2-1 .8-3 1.3-4.7.5-1.6 2-2 3-3 .8-.8.5-1.6 1-3.4.5-1.7 2.7-2 2.7-2l15-8.5c1.2-.8 1.9-2.7 2-3.8.3-1.1 4.5-3.4 6.8-4.2a13 13 0 0 0 5.1-5c.4-.8 1-2.7 2.5-3.3 1.5-.6 2-2.6 3.2-4.6 1.1-2-2.8-3.4-4.7-5.7-2-2.2-5.6-3.8-6-3.9-.2 0-2-.4-1.5-1.6.5-1.2 0-3.6-.2-4.9-.3-1.2-1.3-1.4-2.4-1.7-1.2-.4-3.7-4.6-5-6-1.1-1.5-4.4-1.6-6.2-2.7-1.9-1.2-.9-.9-2.5-2-1.7-1-3.2 1.3-4.2 1.3-.9 0-3.6-.9-4.5-1.3-1-.5-1.2-2.4-1-4.1.2-1.7-.1-2.5-1.3-3.7-1-1.1-.8-2.9-.3-4 .5-1.2-.3-1.5-1.3-1.9-1-.3-1 .1-1.5.9s-1.5 1-3.5 0-2.2-3.9-1.8-6c.3-2.1.7-3.2 2.5-4 1.7-.8 2 0 3.7.8 1.8.9 3.4.2 5-.7 1.7-1 2.5 1.7 2.5 1.7l1.1 3.7c1.1 3.8 1.8.5 2.3-2.7.4-3.3 12.8-10.3 14.6-11.2 1.9-1 1.5-.5 4 0 2.6.6 4.3-1.7 6-2.3 1.8-.6-1.5-1.5-2.8-2.8-1.2-1.2 1.3-.7 2.3-.9 1-.2 3 .2 5.5 1 2.4 1-1.2-9.7-2-11-.7-1.3 0-2.7 0-4.3 0-1.6-2.5.3-4.2 1.5-1.7 1.2-1.2-.3-.7-1.2.5-1-.2-2.2-.3-3.6 0-1.5-3.4-2-4.5-2.4-1.1-.4-1-.2-1.9 1.6-1 1.9-.7 3.3-.9 5.2-.2 1.9-2.9 3.7-4.4 4.6-1.5 1-1.4-.6-1-1.9.3-1.3-.4-1.2-1.7-1.8-1.4-.6-1.5-.7-1.6-2.2-.2-1.4-1.7-3-3.4-3.7-1.7-.6-.3-3.5.1-4.8.5-1.4 3.1-.7 4-.7 1 0 2.6-.5 3.5 1.5 1 2 2.8.8 2.8.8s2.6-1 2.9-2c.3-1-.3-.8-1.6-1.2-1.3-.4-1.5-.4-1.2-1.6.3-1.1.4-1.2 2.8-.6 2.4.7 2-1.9 3.4-2.6 1.4-.7 2.3.4 1.5 2.5-.9 2.1 2.1 1.2 3.3 2.2 1.3 1 .4 1.4-.8 1.3-1.3 0-.6.6-.7 2 0 1.3 0 1 3.7 2.4s1-1.5.8-2c0-.5-1-1.8 2.4-.6 3.4 1.2 2.1-2.2 2.1-2.2s-1.2-4.8-3.6-6.7c-2.4-1.8-1.7-1.6-2.6-3.8-1-2.2-6.7-3-8.3-3.6-1.7-.5-1.9.6-3 1.4-1.1.8.5 2.4-.2 5.8-.8 3.4-2.1-.2-2.1-.2s-.8-1.8-1-3.2c-.2-1.5-.1-2.2 1-3 1-.7 1.7-1.6.6-4.2-1-2.5-2.1-3.7-2.8-4-.7-.3-.9 1.1-1.1 2.3-.3 1.3.5 1.3 1.1 2.2.6 1-.1 2.1-.7 3.4-.6 1.3-.4.3-1-2-.7-2.5-1.8-1.6-3.3-.5-1.5 1 1.3 2.8.6 5.3-.6 2.5-1.4 0-1.4 0s-1-2-2.3-3.2Zm-59.4 34.8s-.5 5.8 1 6c3 .3 1.3-2.1-.3-5.7 0-.4-.6-1.6-.7-.3Zm56.3 29.7.7.6c.4.4.5.9 1 1.2.5.4 1.8.1 2.5.2 2.7.1-3.4-4-4.6-4.7-1-.7-1.3-1-4.4-.6-3 .4 2 2 2 2 1 .4 2 .8 2.8 1.3Zm5.6 3.3-.2.7c.1.6.9.6 1.4.7.4.2 3.3.8 2.1 0l-2.2-2c-1.2-.8-1 0-1.1.6Zm9.5-74.8c.2 1 .8 1 1.2 1.4.5.4.4 1 .2 2.5-.3 1.5 4.4 2.3 7.6 3.2 3.1.8 1.6-1.4-2.4-2.5-1.8-.4-2-.8-2.1-1.9-.3-1-1-1.4-2-2.1-1-.8-.8-1.4-1.5-2.9-1-2-1.2 1.3-1.2 1.3l.2 1Zm12.2 4.6c2.2.7 4.6-2.3 4.9-2.8.2-.6 1.9-1.1 3.7-.6 1.8.5 2.7.8 3.8.1 1-.7 0-.5 2.9-.4 2.7.1 3-.7 3.2-1.7.2-1-4-2.2-5.2-2.5-1.1-.3-1.2.5-2.7.9-1.5.4-8.8-2.5-11.2-3.3h-.7c.2.5 1.2.9 1.6 1.2.6.4.8 1 1.2 1.5.5.5 1.1.7 1.7 1 6 2.5 1 1.6.6 1.5-.5-.1-1.3-.6-1.8.6-.5 1.3-2 .1-2.8 0-.9-.3-.5-.3 0-2 .4-1.5-3.4-2.3-5-2.7-1.6-.4-1.4 1.1-2 2.6-.5 1.5 0 1.6 1.6 2.2 1.5.7.8.9.8 1.9-.1 1 2.4 1.6 2.4 1.6l3 1Zm20.6-3.1s-1.3-.8-2.4 0c-1 .8-.3 1.2-2 .7-1.8-.5-1.7-.3-2.4.6-.7 1-1.9 1.7-3.1 1.3-1.3-.3-3.1-1.4-3.2-.4 0 1 .9 4.1 1.7 4.4.8.3 8.2 1.6 8.1 4.7-.1 3-2.7 7.5-1.6 8.7 1.1 1.2.2 2-.3 2-.5.2-1-.6-1.5.9-.4 1.4.3 1 .7 2.3.4 1.5 1 1.1.5 3-.6 1.7-1 2.4.3 3 1.3.6 2.1 2 2.1 2.7 0 .7 1.6.5 2.1-.2.6-.7 6.4-5.1 7.7-4.8 1.3.2 3.4 1 3.7 0 .4-1.2.2-3 1.7-2.6 1.6.4 4.5 1.4 6.2.3 1.8-1 4.9-1.8 2.5-3-1-.5-1.8-1.8-.9-2.8.1-.1 1.8.5 2 .5.7.1 1.6.1 2.1-.4l2.6-2.6c.8-.7 3.1-2 1-3-.6-.4-.8-1.3.5-1.9 0 0 2.5-2.9 4-2.4.4.1 4.7 1.2 4.3.3-.3-.6-.3-.6-3.2-1.7-.4-.1-.5-.6-.8-.8-.5-.3-1.1-.4-1.6-.6-2.8-.6-1.9-.3-2.8-1.6-.8-1.3-2-1.6-6.8-3-4.9-1.3-6.6-2.4-8-1.7-1.6.7-1.2 1.5-3.8.8l-9.4-2.7Zm18.4 33.9-.2.5c0 .4-.3 1.1.2 1.3l2.5.6c.4 0 .8.4 1.1.2.9-.3 1.4-.9 2.4-.7.4 0 1.4.6 1.6 0 .1-.3.5-2.8.2-3.3-.8-1-3.7-.3-5.4-.8-.6-.2-1.1-.5-1.8-.6-.6 0-.5.6-.6 1v1.8Zm9.4 15.7s-2.4.9-2.8 2c-.4 1.2-1.4 3.2.3 2.7 1.7-.4 3.3-2.1 3.3-2.1s1.6-3.9-.8-2.6Zm3.3.5v2c-.1 1.1-1 1.9-1.9 2.5-.7.6-1.7 1.2-1 2.2 1.1 1.3 3.6-.3 5-.8 1.3-.4 1.1-1.8.8-2.8-.5-1.3-1-2.5-1.2-3.9 0-1.3-.6-2.4-1-3.6-.4-.9-1.2-.8-2 .4-.5 1 .1 2 .6 2.7.3.4.6.9.7 1.3Zm16.4 6.8c-2-.1-3 0-4.7-1-1-.6.3-3.2-.7-3.7-.3-.2-.8-.7-1.1-.4-.2.2-.3.7-.4 1 0 .5-.1 1.8-.9 1.7-1-.1-.4-.7-1.6 1.3-1.2 1.9-3.6 2.1-4.4 2.3-.9.2-2.3 1-4 .4-1.6-.5-2 0-1 1.3.9 1 .7 2.2.4 3.4 0 .6-.3 2.4-1.1 2.3-1-.1-4-1.1-5.2-1.5-1.2-.4-1.3 1.7-1.7 3-.4 1-.2 1.6.2 1.8.3.3 1.1 1 1.3 2.2.2 1.3 2 1.2 3.7 1.8 1.6.6 2-1.5 2.4-2.2.5-.6 0-1.3 1.7-.8 1.7.4 2.6-.5 3.1-1.7.6-1.2 1.5.3 3.5-.2 2-.6 3.6 3.3 4.5 4.4.4.6 1.5 2.2 1.4 2.4-.6.6-3-1-2.6.7.4 2.3 1.8 1.7 4 .2 2-1.5-1.1-4.3-1.6-5-.6-.8-2-2.4-.3-3.5 1.6-1 3.4 3.2 3.4 3.2 1 1.3 2 4.5 2 6.9 0 2.3.2 2.6 2 3.3 2 .7 1.2-2.3 1.2-3.4 0-1 0-1.3 1.3-.8 1.2.4 1.1 3 1.6 4.1.4 1.1 2.6 2.5 3.8 2.4 1.1-.1 1.5-.4 2.4 1.1.8 1.6-2.8 3.7-3.7 3.6-.9-.1-2.7.4-4.4-1.2-1.7-1.7-2-1.6-4.2-2.6-2.1-1-2.1.2-3 1.3-1 1.2-1.8 0-2.1-.8-.3-.8-3.9-4-5-5.5-1.2-1.6-.7-2.6-.9-3.8-.2-1.3-2.3-.8-2.7-.5-.4.2-1.8-.2-3.2-.5-1.3-.4-1.7-.8-2.8 0-1.1.8-1 .2-2.7.8-1.8.5-3.2-.3-5.5-.6-2.2-.4-2.8 4-3 4.8-.3.7-.9 1.5-1.7 1-.8-.5-3.7 3.6-5 4.2-1.3.6-1.6 3.7-1.8 4.7-.3 1-1.4 1.6-2 1.6-.6 0-.9 3.6-1.5 4.3-.6.8 2 2.2 2 2.2.2.4 2 1.6 2.6 3.8 1 2.7 2.5 3 2.5 3l12.5 3.7c1 .3 1.9.9 2.3 1.9.3 1 .6 2.4-.3 3.2-.7.7-1.4 2.3-1 3.3.3.6.9 1 1.3 1.6 1.3 1.4.6 5.7 0 7.8-.4 1.4-1 2.8-1.8 4.1-.2.4-.5.8-1 1.1-.5.5-.7.8-.9 1.5-.3 1.1-.9 2.3.2 3 .7.6.8 4.4.8 4.4s.5 9 .4 11c-.1 1.8.8 2 1.3 2.1.6.2 1.1.5 1.5-.2.3-.7 1-.4 1-.4s.5.3 3.1 1c2.7.7 5.8-3 6.6-3.4.9-.4 1-.6 1.3-2 .3-1.3.6-1.3 2-1 1.3.2 1.4-1 2.2-3.5.8-2.6 2.4-3 4.7-4.2 2.3-1.2 3-8.6 3.8-11.5.7-2.9 2.9-3.7 2.9-3.7s8.8-7.2 11.7-9c3-1.7-.8-2.2-.8-2.2s-3.4-.9-4.9-1.5c-1.5-.6-2.2-4.3-2.7-5.4-.5-1-1.8-3-1.6-5 .2-1.7 0-3.5 0-3.5 0-.4-1.1-2.5-.8-4.4.8-4.4 1.5-.6 1.5-.6s.2 1.3 2 3.4c1.6 2.3 1.2 8.2 1.6 10.6.4 2.5.2 2.4 3.5 3.4s9.2-2.4 10.8-3c1.6-.4 1.5-1.7 1.3-3-.2-1.4-1.4-1.5-3.5-2.6-2-1-2-4-3.6-5.8-1.7-1.8.1-1.2 1.5-.6 1.3.5 1.3 1.3 1.7 2.4.5 1 1.4 1.9 3.7 2.3 2.2.5 3.4 1.8 3.7 2.6.3.8 1.6 1.8 1.6 1.8s3.8 1 4 1.7c.4.6-.3 2 2.1 2.9 2.4 1 2.2 6.1 2.2 6.1s-1.2 6.4.2 8c2.7 3 3.9-4.1 4.4-5.4.5-1.2 4.8-2.1 6.3-2.3.6-.1 1-.7 1.2-1.2.2-.4.2-1.4.6-1.6.3-.2 1.2.2 1.5.3.7.3 2 .2 1.9 1.7a8.9 8.9 0 0 0 1.2 3.7 4 4 0 0 0 1.7 1.6c.6.3 1.5.2 2 .7.7.8-.4 2.3-.7 3l-.8 2.5c-.1.9.2 1.8.1 2.8 0 .6 0 1.2-.2 1.8 0 0 .4 6 3.5 6.4 2 .2-.4-4.1-1.4-6-1-2-.7-3.5.4-4.8 1.1-1.4 1.8 1 3.6 3 1.7 1.9 1 1.1 3.4-.5 2.4-1.7 1.6-4.7 1.2-5.4-.4-.7-1.8-4.4 1.2-4.6 2.9-.1 5.5.4 7 .7 1.5.2 1.9-1.4 5.2-4 3.4-2.8 2.4-7.7 1.9-9.8-.5-2-.5-3 1.5-4.3 2-1.3 2.6 2.3 2.6 2.3s.7 3 2 6c1.2 3.1 2.7-.2 3.3-.8.6-.8-.4-2.2-.8-3.6-.4-1.3 1-2.9 1.3-3.5.4-.6 4.6-1.2 5.8-1.4 1.3 0 3-1.7 4.8-5.8 1.8-4 1.4.9 1.4.9L18 125c-.6 1.7-.7 2.5-3.2 3.2-2.6.7-2.7.3-4 .3-1.2-.1-1.7.1-2.6 2.9-.9 2.7.9 1.6 1.2 1 .4-.6 1.4-2.4 2.8-1.8 1.4.6 4.2-.4 5.8-1 1.7-.6 1.9-3.5 2.3-5 .4-1.6.1-1.2 1.5-.9 1.3.3.9 0 1.4-1.1.6-1.2 0-1.5-1.2-2-1.2-.4-.6-1.5-.6-1.5s2-6 2.2-7.6c0-1.5-1-4-4.8-4.9-3.7-.8 3.3-4.2 5.6-5.5 2.2-1.3 3.5.4 3.5.4s1.8 1.6 4.5 3c2.6 1.5 2-1.1 2.7-2.5.8-1.4 1.9-.5 3.8 1.8 1.8 2.3-3.4 4-4.2 4.7-.8.7-.2 3.5.4 6.5.7 3 1.4-.2 2-1.2.4-1 .6-2 1.8-2.5 1.3-.5 1.1-2 1.8-4.2.6-2.1 2-1.4 4.3-.7 2.4.7 3 0 3.6-.2.6-.2.5-1 4.2-.5 3.6.6-1-10.4-1.5-11.3-.4-.8-10.8-3.2-13.2-4-2.5-.9-2-2.5-2.3-3.2-.3-.8-6-2-7.1-2.3-1-.3-1.5-2.8-2.3-3.2-1-.4-1.5.4-2.7 1-1 .5-.5-1.4-.4-2.2.1-.8-.3-1.3-1.2-1.8-1-.6-1.7 2-2 2.9-.4.9-8.3-1.8-9.8-2.3-1.6-.5-1.6-2.3-1.3-4.2.2-1.9-2-.5-2-.5l-3.8-.9s-6.3-2-8-2.3c-1.8-.2.5-2 1.7-2.8 1.2-.9-2.4-3.7-2.8-4.3-.4-.6-3.9-1-4.5-1.4-.6-.5-.7-1.7-1-1.4-.3.3-.9 1.2-1.8 1.6-1 .3-1.6-.1-2.6-.3-1-.1-.6.5-3.9-.7-3.3-1.1-4.1 1-5.6 2-1.4 1-3.2.3-4 .1-1-.1-1.1 1.7-1.8 2.6-.7 1-1.6-2-2.1-2.4-.5-.5-.9 1.5-.9 1.5s-1.7 5.7-2.2 6.3c-.4.5-.8-5-.5-6.2.4-1.1.2-3.9.1-4.4 0-.5-.7 0-1.6.8-1 .7-1 2.6-1.6 3.8-.5 1.2-1 .3-3-.2-1.9-.6-2.4 0-3.4.4-1 .6-4-.5-5.6-1-1.7-.5-2.8.2-4.7.7-1.8.5-1-.9-1.6-2.5-.6-1.7-1.6.5-2.5 1.3-.8.8-3-2.7-4-4.2-1-1.6-2.1-1-2.9-1.2-.7-.2-1.7-.2-2-1.7-.5-1.5-2.6-2-4.6-3.4-2-1.4-3.3 0-5.9.2-2.6.1-3.6 1.4-3.6 1.4l-.6 1.3c-.5 1.3-2.6 2.3-4 3.3-1.5 1-3.5.5-4.8.7-1.2.3-1.5 4-1.9 5.5-.4 1.4 2.2 1.1 3.7 1.6 1.5.4.3 1.4 0 2-.3.4-1 0-1.3.3v.3c0 .5.4 1.1.6 1.7.5 1.8 1.7.3 1.7.3s2-1.4 3.9-3c1.6-1.5 0-3.4 1.7-4.7 1.4-1 3-2 4.7-2.6 2.7-1 2.8 0 3.1 1.3.4 1.2-4 1.4-5.8 3.6-1.8 2.3 2.4 1.7.7 3.5-3.5 4.5-4.4 5.2-6.5 5ZM-50 61.6c.5.7 1.1 1.5 1.8 2.1.2.3 1.2 1.3 1 .4 0-.6-.2-1.3-.5-1.8-.4-1.1-.1-1.7.2-2.9.4-1.2 3-1.5 3-1.5 9.5-1.7 1.1-1.6-.1-1.8a16 16 0 0 0-3-.4c-.7 0-2.5 1.2-3.5 2.4-.3.3-.4.8-.4 1.3.1.3.2.6.5.9l1 1.3Zm-32.6 97c-.8.3-1 1.9-1.9 4.5-.2.7-.8 6.3 1 4.8 0 0 2.3-2 2.8-3.3.4-1.3 2-2.4 2.7-3.2.8-.8.9-2.1.5-4.5-.3-2.3-2.4.8-2.4.8-.5.5-1.9.6-2.7.9Zm55-.3 1.4 3 .7 1.6c.3.5.7 1 .7 1.6 0 .5-.2 1.2.1 1.7.3.5.8.7 1.3.7l5.8 1.8c11.5 3.4 3 0 2.6-.2-.5-.3-1.6-.3-2.3-1.3-.8-1-5.1-2-5.1-2s-1.5-.4-1-1.6c.6-1.2 0-1.3-1-5s-1.5-1.4-3.6-5.3c-2.1-4-1.2-.3-1 1a17.6 17.6 0 0 0 1.4 4Zm16 6c-.3.7-.5 1.3.2 1.7 1.3.8 1.1.3 2.8-.2.3 0 1.2-.3 1.2-.6 0-.4-.6-.6-.8-.8-.2-.2-.4-.6-.7-.7a5 5 0 0 0-1.2-.3c-.5-.1-.8 0-1 .3l-.4.7Zm-4.2-1.8 1.5.2c.4 0 .8-.3 1.1-.5.7-.3 1-.7 1.2-1.2.7-1.3 1-2.7 1.4-4 .7-2.5.2-2.1.1-3.3 0-.6-1.9-.4-2.8 0-.8.3-.7 1.3-1 2-.2 1-1.1.8-1.9 1l-2.6 1.2c-1.1.5-.5 1.5-.4 2.4 0 .3.1.6.3.8.3.4.7.6 1 .7h.2l2 .7Zm11.3-8.7c0 .9.4 1.8.6 2.6.1.5.5 1.3 1.1 1 .8-.3 1-1.2 1.1-1.8.4-1.5 1.2-3.7 1-4.9-.4-1.2-1.4-2.2-1.9-3.4-.4-1-.9-1-.8-4 0-3-.8.6-1.4 2.3-.7 1.7.5 3.5.5 3.5.8 1.7-.4 3-.2 4.7Zm8.1 17.4c.6.2 1.1.6 1.3 1.2.4.7.3 1.5.5 2.2.1.6.4 1.3 1 1.3.7 0 1.5-.4 1.8.4.4 1 .9.8.9.8.2-.1 2-.6 2.6.2 3.3 4.8 2.3 1.6 1.6 0-.7-1.8-2.9-4.7-3.8-6.3-.9-1.6-3.7-1.2-5-1.8-1.4-.6-.6-1.8-1-2.8-.6-1.1-3.8-1-4.4-1.6-.6-.6-1-.8-.7-1.8 0-.1.2-1.5-.3-1.1-.2.1-.3.7-.4 1l-.3 1.2c-.1 1 .8.8 1.8 1.9 1 1 1.1 2.4 1 3.6 0 .9 1 1.1 1.9 1.3l1.5.3Zm-4 39c-.3-.1-.8-.3-1 0-.2.2.3.7.2 1-.1.4-.6 1.6.6 2 1.1.5 1.5-.2 2.1-1.2.1-.2.2-.4.1-.6 0-.3-.4-.5-.6-.6-.3 0-.5-.2-.8-.3l-.7-.3Zm-5.2-32.6c-1.4-.2-3 .3-4.2.6-1 .2-1.9.4-2.4 1.2-.6.6-.9 1.8-1.2 2.5-.4.9-2.5-.6-3.4-.7-1-.2-1 .8-1.3 1-.5.2-1.6-.5-2.7-.6-1.3-.1-1.4 2.3-1.7 3-.4.9-1 1.7-1.4 2.4-.8 1.5.2 1.7.8 2.3.7.6-.7 2.7-1 4-.1 1.2 1 2.7 1.9 3.4.6.5 1.4.6 2.1.8.8.2 1.6.5 2.4.5.8 0 1.5-.4 2.3-.7a5 5 0 0 1 3.6 0l3.8 1.4c.7.2 2 .3 1.9 1.3 0 .7-.4 1.3-.4 2-.1 1.5 1 1.3 2.1 1.6 1.2.4 1 1.3 1 2.2 0 1.6 1.2 1.8 2.4 2.2l2.8.7c1.5.3 3-1 3-1l4.4-4c1.4-1 2.7-4 3.5-6.5.7-2.4-1.7-6.9-1.7-6.9l-3.4-8c-.6-1 .2-2 .2-3s-1.2.3-2.1.3c-1 0-1.5 3.5-1.6 4-.2.5-1.2.1-1.5-.8-.4-.8-.8-.8-1.4-1.4-.7-.7-1-1.7-.6-3.1.3-1.4-1.2-1.3-2.8-1.8-1.6-.6-1 .1-1.6.9-.4.5-1 .4-1.5.3h-.3ZM19.2 220c-.8.5-3 2.2-2.1 2.7.9.4 2 1.3 2.7.8.8-.6.8-1.2 2.8-1.4 1 0 2.6-2.6 2.6-2.6s0-1-.5-1.9c-.3-.5-2 .8-2.6 1.1l-2.9 1.3Zm9.5-2.7c.7-1 1.3-.2 1.5-1 .2-.7-1.6-2.7-2.1-3.5-1.2-1.7-.5 1.3-1.1 2-.7.6-.7.6-.7 1.6 0 .3 0 1.6.2 1.8 1.3.9 1.6 0 2.2-1Z"/>
    </mask>
    <path stroke="#475566" stroke-opacity=".3" stroke-width="2" d="M-186.6 15.6c-.5-.6-1-1.1-1.7-1.5-1-.5-2.2-.7-3-1.5-.5-.5-1.3-2.7.3-2 1 .4 3.2 1 4.2.3 2.5-1.6 3.5 4.3 5.8 4.4 1.3 0 2-1.4 3-.4.6.7 1.2 1.6 1.5 2.5.5 1.2-.2 1.6-1.4 1.5-1-.2-2.1-.6-3.2-1l-3-.6c-1-.2-1.8-1-2.5-1.7Zm13.4-3.2s0 2.4.6 3c.7.5 1 1 1.8 0 .8-.8-.3-1.6-.9-2.6-.6-1-1.4-3.4-1.5-.4Zm-7.6 12.3c-1.2-1-.2-1.8-.2-3.6s-1.6-.5-3.5.7c-1.9 1-2.5-2.2-3-3.1-.5-1 .2-1-3.5-2.4-3.7-1.5-3.4-1.6-5.6-.1-2.3 1.4 1 1.9 3.1 2.8 2.1.8 1.8 2.2 1.2 3.4-.6 1.3-4.4-.5-8.1-2-3.7-1.6-3.6-.7-5.7-.4-2.2.3-5.7-3.2-7.2-4.2s-13.3-3.7-15-4.2c-1.7-.5-3 .5-4.5.7-1.5.2-1.6 2.7-2 3.8-.3 1-2.5-.6-3.8-1-1.3-.4-1.2.4-1.6 1.4-.4.9.2 1.1 1.7 1.5 1.6.4 2.2.8 2 1.9-.3 1-2.2-.1-3.5-.5-1.2-.4-1.3 2-1.6 3.9-.3 1.9 1 2 1.5 2.7.6.7 1.4 1.7-5.3 2.4-6.6.8-.6 1.4.5 1.2a36 36 0 0 1 7.2.3c1.3.3 3.8-.6 5.8-1.5s7 1.3 10.7 2.4c3.7 1.1 4.5 10.1 6 11.9 1.3 1.8-1.4 12-2.4 15-.9 2.9.7 5.6 1.4 6.8.7 1.3 1.6 7.4 3.2 11.8 1.6 4.5 1.7-.5 1.6-2.8-.2-2.4.8 0 .8 0s3.1 6.9 3.3 9.7c.2 2.8 3.7 6.2 6.4 7.2s2.4 1.7 2.4 1.7-.5 1 2.7 2.4c3.1 1.3 1.8 3.7 2.9 5 1 1.5 2.8 3.1 4.7 3.7 1.8.5 1.2.1 1.2 1.6s-2 3-3.2 3.8c-1.2.7-2 3-2.8 5.6-.8 2.7.1 3.6.1 3.6s3 11 4 12.2c1.2 1.2.4 3 .4 3l-4.3 14.6c-.4 1-.5 1-1.7 2-1.3 1-2 3.8-2 3.8l-4 13c-.2.8.9 2.4 4.7 6.2 3.8 3.7 1.6-.9 1.3-1.9-.2-1 .8-3 1.3-4.7.5-1.6 2-2 3-3 .8-.8.5-1.6 1-3.4.5-1.7 2.7-2 2.7-2l15-8.5c1.2-.8 1.9-2.7 2-3.8.3-1.1 4.5-3.4 6.8-4.2a13 13 0 0 0 5.1-5c.4-.8 1-2.7 2.5-3.3 1.5-.6 2-2.6 3.2-4.6 1.1-2-2.8-3.4-4.7-5.7-2-2.2-5.6-3.8-6-3.9-.2 0-2-.4-1.5-1.6.5-1.2 0-3.6-.2-4.9-.3-1.2-1.3-1.4-2.4-1.7-1.2-.4-3.7-4.6-5-6-1.1-1.5-4.4-1.6-6.2-2.7-1.9-1.2-.9-.9-2.5-2-1.7-1-3.2 1.3-4.2 1.3-.9 0-3.6-.9-4.5-1.3-1-.5-1.2-2.4-1-4.1.2-1.7-.1-2.5-1.3-3.7-1-1.1-.8-2.9-.3-4 .5-1.2-.3-1.5-1.3-1.9-1-.3-1 .1-1.5.9s-1.5 1-3.5 0-2.2-3.9-1.8-6c.3-2.1.7-3.2 2.5-4 1.7-.8 2 0 3.7.8 1.8.9 3.4.2 5-.7 1.7-1 2.5 1.7 2.5 1.7l1.1 3.7c1.1 3.8 1.8.5 2.3-2.7.4-3.3 12.8-10.3 14.6-11.2 1.9-1 1.5-.5 4 0 2.6.6 4.3-1.7 6-2.3 1.8-.6-1.5-1.5-2.8-2.8-1.2-1.2 1.3-.7 2.3-.9 1-.2 3 .2 5.5 1 2.4 1-1.2-9.7-2-11-.7-1.3 0-2.7 0-4.3 0-1.6-2.5.3-4.2 1.5-1.7 1.2-1.2-.3-.7-1.2.5-1-.2-2.2-.3-3.6 0-1.5-3.4-2-4.5-2.4-1.1-.4-1-.2-1.9 1.6-1 1.9-.7 3.3-.9 5.2-.2 1.9-2.9 3.7-4.4 4.6-1.5 1-1.4-.6-1-1.9.3-1.3-.4-1.2-1.7-1.8-1.4-.6-1.5-.7-1.6-2.2-.2-1.4-1.7-3-3.4-3.7-1.7-.6-.3-3.5.1-4.8.5-1.4 3.1-.7 4-.7 1 0 2.6-.5 3.5 1.5 1 2 2.8.8 2.8.8s2.6-1 2.9-2c.3-1-.3-.8-1.6-1.2-1.3-.4-1.5-.4-1.2-1.6.3-1.1.4-1.2 2.8-.6 2.4.7 2-1.9 3.4-2.6 1.4-.7 2.3.4 1.5 2.5-.9 2.1 2.1 1.2 3.3 2.2 1.3 1 .4 1.4-.8 1.3-1.3 0-.6.6-.7 2 0 1.3 0 1 3.7 2.4s1-1.5.8-2c0-.5-1-1.8 2.4-.6 3.4 1.2 2.1-2.2 2.1-2.2s-1.2-4.8-3.6-6.7c-2.4-1.8-1.7-1.6-2.6-3.8-1-2.2-6.7-3-8.3-3.6-1.7-.5-1.9.6-3 1.4-1.1.8.5 2.4-.2 5.8-.8 3.4-2.1-.2-2.1-.2s-.8-1.8-1-3.2c-.2-1.5-.1-2.2 1-3 1-.7 1.7-1.6.6-4.2-1-2.5-2.1-3.7-2.8-4-.7-.3-.9 1.1-1.1 2.3-.3 1.3.5 1.3 1.1 2.2.6 1-.1 2.1-.7 3.4-.6 1.3-.4.3-1-2-.7-2.5-1.8-1.6-3.3-.5-1.5 1 1.3 2.8.6 5.3-.6 2.5-1.4 0-1.4 0s-1-2-2.3-3.2Zm-59.4 34.8s-.5 5.8 1 6c3 .3 1.3-2.1-.3-5.7 0-.4-.6-1.6-.7-.3Zm56.3 29.7.7.6c.4.4.5.9 1 1.2.5.4 1.8.1 2.5.2 2.7.1-3.4-4-4.6-4.7-1-.7-1.3-1-4.4-.6-3 .4 2 2 2 2 1 .4 2 .8 2.8 1.3Zm5.6 3.3-.2.7c.1.6.9.6 1.4.7.4.2 3.3.8 2.1 0l-2.2-2c-1.2-.8-1 0-1.1.6Zm9.5-74.8c.2 1 .8 1 1.2 1.4.5.4.4 1 .2 2.5-.3 1.5 4.4 2.3 7.6 3.2 3.1.8 1.6-1.4-2.4-2.5-1.8-.4-2-.8-2.1-1.9-.3-1-1-1.4-2-2.1-1-.8-.8-1.4-1.5-2.9-1-2-1.2 1.3-1.2 1.3l.2 1Zm12.2 4.6c2.2.7 4.6-2.3 4.9-2.8.2-.6 1.9-1.1 3.7-.6 1.8.5 2.7.8 3.8.1 1-.7 0-.5 2.9-.4 2.7.1 3-.7 3.2-1.7.2-1-4-2.2-5.2-2.5-1.1-.3-1.2.5-2.7.9-1.5.4-8.8-2.5-11.2-3.3h-.7c.2.5 1.2.9 1.6 1.2.6.4.8 1 1.2 1.5.5.5 1.1.7 1.7 1 6 2.5 1 1.6.6 1.5-.5-.1-1.3-.6-1.8.6-.5 1.3-2 .1-2.8 0-.9-.3-.5-.3 0-2 .4-1.5-3.4-2.3-5-2.7-1.6-.4-1.4 1.1-2 2.6-.5 1.5 0 1.6 1.6 2.2 1.5.7.8.9.8 1.9-.1 1 2.4 1.6 2.4 1.6l3 1Zm20.6-3.1s-1.3-.8-2.4 0c-1 .8-.3 1.2-2 .7-1.8-.5-1.7-.3-2.4.6-.7 1-1.9 1.7-3.1 1.3-1.3-.3-3.1-1.4-3.2-.4 0 1 .9 4.1 1.7 4.4.8.3 8.2 1.6 8.1 4.7-.1 3-2.7 7.5-1.6 8.7 1.1 1.2.2 2-.3 2-.5.2-1-.6-1.5.9-.4 1.4.3 1 .7 2.3.4 1.5 1 1.1.5 3-.6 1.7-1 2.4.3 3 1.3.6 2.1 2 2.1 2.7 0 .7 1.6.5 2.1-.2.6-.7 6.4-5.1 7.7-4.8 1.3.2 3.4 1 3.7 0 .4-1.2.2-3 1.7-2.6 1.6.4 4.5 1.4 6.2.3 1.8-1 4.9-1.8 2.5-3-1-.5-1.8-1.8-.9-2.8.1-.1 1.8.5 2 .5.7.1 1.6.1 2.1-.4l2.6-2.6c.8-.7 3.1-2 1-3-.6-.4-.8-1.3.5-1.9 0 0 2.5-2.9 4-2.4.4.1 4.7 1.2 4.3.3-.3-.6-.3-.6-3.2-1.7-.4-.1-.5-.6-.8-.8-.5-.3-1.1-.4-1.6-.6-2.8-.6-1.9-.3-2.8-1.6-.8-1.3-2-1.6-6.8-3-4.9-1.3-6.6-2.4-8-1.7-1.6.7-1.2 1.5-3.8.8l-9.4-2.7Zm18.4 33.9-.2.5c0 .4-.3 1.1.2 1.3l2.5.6c.4 0 .8.4 1.1.2.9-.3 1.4-.9 2.4-.7.4 0 1.4.6 1.6 0 .1-.3.5-2.8.2-3.3-.8-1-3.7-.3-5.4-.8-.6-.2-1.1-.5-1.8-.6-.6 0-.5.6-.6 1v1.8Zm9.4 15.7s-2.4.9-2.8 2c-.4 1.2-1.4 3.2.3 2.7 1.7-.4 3.3-2.1 3.3-2.1s1.6-3.9-.8-2.6Zm3.3.5v2c-.1 1.1-1 1.9-1.9 2.5-.7.6-1.7 1.2-1 2.2 1.1 1.3 3.6-.3 5-.8 1.3-.4 1.1-1.8.8-2.8-.5-1.3-1-2.5-1.2-3.9 0-1.3-.6-2.4-1-3.6-.4-.9-1.2-.8-2 .4-.5 1 .1 2 .6 2.7.3.4.6.9.7 1.3Zm16.4 6.8c-2-.1-3 0-4.7-1-1-.6.3-3.2-.7-3.7-.3-.2-.8-.7-1.1-.4-.2.2-.3.7-.4 1 0 .5-.1 1.8-.9 1.7-1-.1-.4-.7-1.6 1.3-1.2 1.9-3.6 2.1-4.4 2.3-.9.2-2.3 1-4 .4-1.6-.5-2 0-1 1.3.9 1 .7 2.2.4 3.4 0 .6-.3 2.4-1.1 2.3-1-.1-4-1.1-5.2-1.5-1.2-.4-1.3 1.7-1.7 3-.4 1-.2 1.6.2 1.8.3.3 1.1 1 1.3 2.2.2 1.3 2 1.2 3.7 1.8 1.6.6 2-1.5 2.4-2.2.5-.6 0-1.3 1.7-.8 1.7.4 2.6-.5 3.1-1.7.6-1.2 1.5.3 3.5-.2 2-.6 3.6 3.3 4.5 4.4.4.6 1.5 2.2 1.4 2.4-.6.6-3-1-2.6.7.4 2.3 1.8 1.7 4 .2 2-1.5-1.1-4.3-1.6-5-.6-.8-2-2.4-.3-3.5 1.6-1 3.4 3.2 3.4 3.2 1 1.3 2 4.5 2 6.9 0 2.3.2 2.6 2 3.3 2 .7 1.2-2.3 1.2-3.4 0-1 0-1.3 1.3-.8 1.2.4 1.1 3 1.6 4.1.4 1.1 2.6 2.5 3.8 2.4 1.1-.1 1.5-.4 2.4 1.1.8 1.6-2.8 3.7-3.7 3.6-.9-.1-2.7.4-4.4-1.2-1.7-1.7-2-1.6-4.2-2.6-2.1-1-2.1.2-3 1.3-1 1.2-1.8 0-2.1-.8-.3-.8-3.9-4-5-5.5-1.2-1.6-.7-2.6-.9-3.8-.2-1.3-2.3-.8-2.7-.5-.4.2-1.8-.2-3.2-.5-1.3-.4-1.7-.8-2.8 0-1.1.8-1 .2-2.7.8-1.8.5-3.2-.3-5.5-.6-2.2-.4-2.8 4-3 4.8-.3.7-.9 1.5-1.7 1-.8-.5-3.7 3.6-5 4.2-1.3.6-1.6 3.7-1.8 4.7-.3 1-1.4 1.6-2 1.6-.6 0-.9 3.6-1.5 4.3-.6.8 2 2.2 2 2.2.2.4 2 1.6 2.6 3.8 1 2.7 2.5 3 2.5 3l12.5 3.7c1 .3 1.9.9 2.3 1.9.3 1 .6 2.4-.3 3.2-.7.7-1.4 2.3-1 3.3.3.6.9 1 1.3 1.6 1.3 1.4.6 5.7 0 7.8-.4 1.4-1 2.8-1.8 4.1-.2.4-.5.8-1 1.1-.5.5-.7.8-.9 1.5-.3 1.1-.9 2.3.2 3 .7.6.8 4.4.8 4.4s.5 9 .4 11c-.1 1.8.8 2 1.3 2.1.6.2 1.1.5 1.5-.2.3-.7 1-.4 1-.4s.5.3 3.1 1c2.7.7 5.8-3 6.6-3.4.9-.4 1-.6 1.3-2 .3-1.3.6-1.3 2-1 1.3.2 1.4-1 2.2-3.5.8-2.6 2.4-3 4.7-4.2 2.3-1.2 3-8.6 3.8-11.5.7-2.9 2.9-3.7 2.9-3.7s8.8-7.2 11.7-9c3-1.7-.8-2.2-.8-2.2s-3.4-.9-4.9-1.5c-1.5-.6-2.2-4.3-2.7-5.4-.5-1-1.8-3-1.6-5 .2-1.7 0-3.5 0-3.5 0-.4-1.1-2.5-.8-4.4.8-4.4 1.5-.6 1.5-.6s.2 1.3 2 3.4c1.6 2.3 1.2 8.2 1.6 10.6.4 2.5.2 2.4 3.5 3.4s9.2-2.4 10.8-3c1.6-.4 1.5-1.7 1.3-3-.2-1.4-1.4-1.5-3.5-2.6-2-1-2-4-3.6-5.8-1.7-1.8.1-1.2 1.5-.6 1.3.5 1.3 1.3 1.7 2.4.5 1 1.4 1.9 3.7 2.3 2.2.5 3.4 1.8 3.7 2.6.3.8 1.6 1.8 1.6 1.8s3.8 1 4 1.7c.4.6-.3 2 2.1 2.9 2.4 1 2.2 6.1 2.2 6.1s-1.2 6.4.2 8c2.7 3 3.9-4.1 4.4-5.4.5-1.2 4.8-2.1 6.3-2.3.6-.1 1-.7 1.2-1.2.2-.4.2-1.4.6-1.6.3-.2 1.2.2 1.5.3.7.3 2 .2 1.9 1.7a8.9 8.9 0 0 0 1.2 3.7 4 4 0 0 0 1.7 1.6c.6.3 1.5.2 2 .7.7.8-.4 2.3-.7 3l-.8 2.5c-.1.9.2 1.8.1 2.8 0 .6 0 1.2-.2 1.8 0 0 .4 6 3.5 6.4 2 .2-.4-4.1-1.4-6-1-2-.7-3.5.4-4.8 1.1-1.4 1.8 1 3.6 3 1.7 1.9 1 1.1 3.4-.5 2.4-1.7 1.6-4.7 1.2-5.4-.4-.7-1.8-4.4 1.2-4.6 2.9-.1 5.5.4 7 .7 1.5.2 1.9-1.4 5.2-4 3.4-2.8 2.4-7.7 1.9-9.8-.5-2-.5-3 1.5-4.3 2-1.3 2.6 2.3 2.6 2.3s.7 3 2 6c1.2 3.1 2.7-.2 3.3-.8.6-.8-.4-2.2-.8-3.6-.4-1.3 1-2.9 1.3-3.5.4-.6 4.6-1.2 5.8-1.4 1.3 0 3-1.7 4.8-5.8 1.8-4 1.4.9 1.4.9L18 125c-.6 1.7-.7 2.5-3.2 3.2-2.6.7-2.7.3-4 .3-1.2-.1-1.7.1-2.6 2.9-.9 2.7.9 1.6 1.2 1 .4-.6 1.4-2.4 2.8-1.8 1.4.6 4.2-.4 5.8-1 1.7-.6 1.9-3.5 2.3-5 .4-1.6.1-1.2 1.5-.9 1.3.3.9 0 1.4-1.1.6-1.2 0-1.5-1.2-2-1.2-.4-.6-1.5-.6-1.5s2-6 2.2-7.6c0-1.5-1-4-4.8-4.9-3.7-.8 3.3-4.2 5.6-5.5 2.2-1.3 3.5.4 3.5.4s1.8 1.6 4.5 3c2.6 1.5 2-1.1 2.7-2.5.8-1.4 1.9-.5 3.8 1.8 1.8 2.3-3.4 4-4.2 4.7-.8.7-.2 3.5.4 6.5.7 3 1.4-.2 2-1.2.4-1 .6-2 1.8-2.5 1.3-.5 1.1-2 1.8-4.2.6-2.1 2-1.4 4.3-.7 2.4.7 3 0 3.6-.2.6-.2.5-1 4.2-.5 3.6.6-1-10.4-1.5-11.3-.4-.8-10.8-3.2-13.2-4-2.5-.9-2-2.5-2.3-3.2-.3-.8-6-2-7.1-2.3-1-.3-1.5-2.8-2.3-3.2-1-.4-1.5.4-2.7 1-1 .5-.5-1.4-.4-2.2.1-.8-.3-1.3-1.2-1.8-1-.6-1.7 2-2 2.9-.4.9-8.3-1.8-9.8-2.3-1.6-.5-1.6-2.3-1.3-4.2.2-1.9-2-.5-2-.5l-3.8-.9s-6.3-2-8-2.3c-1.8-.2.5-2 1.7-2.8 1.2-.9-2.4-3.7-2.8-4.3-.4-.6-3.9-1-4.5-1.4-.6-.5-.7-1.7-1-1.4-.3.3-.9 1.2-1.8 1.6-1 .3-1.6-.1-2.6-.3-1-.1-.6.5-3.9-.7-3.3-1.1-4.1 1-5.6 2-1.4 1-3.2.3-4 .1-1-.1-1.1 1.7-1.8 2.6-.7 1-1.6-2-2.1-2.4-.5-.5-.9 1.5-.9 1.5s-1.7 5.7-2.2 6.3c-.4.5-.8-5-.5-6.2.4-1.1.2-3.9.1-4.4 0-.5-.7 0-1.6.8-1 .7-1 2.6-1.6 3.8-.5 1.2-1 .3-3-.2-1.9-.6-2.4 0-3.4.4-1 .6-4-.5-5.6-1-1.7-.5-2.8.2-4.7.7-1.8.5-1-.9-1.6-2.5-.6-1.7-1.6.5-2.5 1.3-.8.8-3-2.7-4-4.2-1-1.6-2.1-1-2.9-1.2-.7-.2-1.7-.2-2-1.7-.5-1.5-2.6-2-4.6-3.4-2-1.4-3.3 0-5.9.2-2.6.1-3.6 1.4-3.6 1.4l-.6 1.3c-.5 1.3-2.6 2.3-4 3.3-1.5 1-3.5.5-4.8.7-1.2.3-1.5 4-1.9 5.5-.4 1.4 2.2 1.1 3.7 1.6 1.5.4.3 1.4 0 2-.3.4-1 0-1.3.3v.3c0 .5.4 1.1.6 1.7.5 1.8 1.7.3 1.7.3s2-1.4 3.9-3c1.6-1.5 0-3.4 1.7-4.7 1.4-1 3-2 4.7-2.6 2.7-1 2.8 0 3.1 1.3.4 1.2-4 1.4-5.8 3.6-1.8 2.3 2.4 1.7.7 3.5-3.5 4.5-4.4 5.2-6.5 5ZM-50 61.6c.5.7 1.1 1.5 1.8 2.1.2.3 1.2 1.3 1 .4 0-.6-.2-1.3-.5-1.8-.4-1.1-.1-1.7.2-2.9.4-1.2 3-1.5 3-1.5 9.5-1.7 1.1-1.6-.1-1.8a16 16 0 0 0-3-.4c-.7 0-2.5 1.2-3.5 2.4-.3.3-.4.8-.4 1.3.1.3.2.6.5.9l1 1.3Zm-32.6 97c-.8.3-1 1.9-1.9 4.5-.2.7-.8 6.3 1 4.8 0 0 2.3-2 2.8-3.3.4-1.3 2-2.4 2.7-3.2.8-.8.9-2.1.5-4.5-.3-2.3-2.4.8-2.4.8-.5.5-1.9.6-2.7.9Zm55-.3 1.4 3 .7 1.6c.3.5.7 1 .7 1.6 0 .5-.2 1.2.1 1.7.3.5.8.7 1.3.7l5.8 1.8c11.5 3.4 3 0 2.6-.2-.5-.3-1.6-.3-2.3-1.3-.8-1-5.1-2-5.1-2s-1.5-.4-1-1.6c.6-1.2 0-1.3-1-5s-1.5-1.4-3.6-5.3c-2.1-4-1.2-.3-1 1a17.6 17.6 0 0 0 1.4 4Zm16 6c-.3.7-.5 1.3.2 1.7 1.3.8 1.1.3 2.8-.2.3 0 1.2-.3 1.2-.6 0-.4-.6-.6-.8-.8-.2-.2-.4-.6-.7-.7a5 5 0 0 0-1.2-.3c-.5-.1-.8 0-1 .3l-.4.7Zm-4.2-1.8 1.5.2c.4 0 .8-.3 1.1-.5.7-.3 1-.7 1.2-1.2.7-1.3 1-2.7 1.4-4 .7-2.5.2-2.1.1-3.3 0-.6-1.9-.4-2.8 0-.8.3-.7 1.3-1 2-.2 1-1.1.8-1.9 1l-2.6 1.2c-1.1.5-.5 1.5-.4 2.4 0 .3.1.6.3.8.3.4.7.6 1 .7h.2l2 .7Zm11.3-8.7c0 .9.4 1.8.6 2.6.1.5.5 1.3 1.1 1 .8-.3 1-1.2 1.1-1.8.4-1.5 1.2-3.7 1-4.9-.4-1.2-1.4-2.2-1.9-3.4-.4-1-.9-1-.8-4 0-3-.8.6-1.4 2.3-.7 1.7.5 3.5.5 3.5.8 1.7-.4 3-.2 4.7Zm8.1 17.4c.6.2 1.1.6 1.3 1.2.4.7.3 1.5.5 2.2.1.6.4 1.3 1 1.3.7 0 1.5-.4 1.8.4.4 1 .9.8.9.8.2-.1 2-.6 2.6.2 3.3 4.8 2.3 1.6 1.6 0-.7-1.8-2.9-4.7-3.8-6.3-.9-1.6-3.7-1.2-5-1.8-1.4-.6-.6-1.8-1-2.8-.6-1.1-3.8-1-4.4-1.6-.6-.6-1-.8-.7-1.8 0-.1.2-1.5-.3-1.1-.2.1-.3.7-.4 1l-.3 1.2c-.1 1 .8.8 1.8 1.9 1 1 1.1 2.4 1 3.6 0 .9 1 1.1 1.9 1.3l1.5.3Zm-4 39c-.3-.1-.8-.3-1 0-.2.2.3.7.2 1-.1.4-.6 1.6.6 2 1.1.5 1.5-.2 2.1-1.2.1-.2.2-.4.1-.6 0-.3-.4-.5-.6-.6-.3 0-.5-.2-.8-.3l-.7-.3Zm-5.2-32.6c-1.4-.2-3 .3-4.2.6-1 .2-1.9.4-2.4 1.2-.6.6-.9 1.8-1.2 2.5-.4.9-2.5-.6-3.4-.7-1-.2-1 .8-1.3 1-.5.2-1.6-.5-2.7-.6-1.3-.1-1.4 2.3-1.7 3-.4.9-1 1.7-1.4 2.4-.8 1.5.2 1.7.8 2.3.7.6-.7 2.7-1 4-.1 1.2 1 2.7 1.9 3.4.6.5 1.4.6 2.1.8.8.2 1.6.5 2.4.5.8 0 1.5-.4 2.3-.7a5 5 0 0 1 3.6 0l3.8 1.4c.7.2 2 .3 1.9 1.3 0 .7-.4 1.3-.4 2-.1 1.5 1 1.3 2.1 1.6 1.2.4 1 1.3 1 2.2 0 1.6 1.2 1.8 2.4 2.2l2.8.7c1.5.3 3-1 3-1l4.4-4c1.4-1 2.7-4 3.5-6.5.7-2.4-1.7-6.9-1.7-6.9l-3.4-8c-.6-1 .2-2 .2-3s-1.2.3-2.1.3c-1 0-1.5 3.5-1.6 4-.2.5-1.2.1-1.5-.8-.4-.8-.8-.8-1.4-1.4-.7-.7-1-1.7-.6-3.1.3-1.4-1.2-1.3-2.8-1.8-1.6-.6-1 .1-1.6.9-.4.5-1 .4-1.5.3h-.3ZM19.2 220c-.8.5-3 2.2-2.1 2.7.9.4 2 1.3 2.7.8.8-.6.8-1.2 2.8-1.4 1 0 2.6-2.6 2.6-2.6s0-1-.5-1.9c-.3-.5-2 .8-2.6 1.1l-2.9 1.3Zm9.5-2.7c.7-1 1.3-.2 1.5-1 .2-.7-1.6-2.7-2.1-3.5-1.2-1.7-.5 1.3-1.1 2-.7.6-.7.6-.7 1.6 0 .3 0 1.6.2 1.8 1.3.9 1.6 0 2.2-1Z" mask="url(#b)"/>
    <mask id="c" fill="#fff">
      <path d="M-175.3 93.7c1.1.9-1.7.2-2.2 0-.5 0-1.2 0-1.3-.7l.1-.6c.2-.7 0-1.4 1.1-.6.9.6 1.6 1.4 2.3 2Zm203 119c-1-1.7-.4 1.4-1 2-.7.6-.7.6-.7 1.6 0 .3 0 1.6.2 1.8 1.2.9 1.6 0 2.3-1 .6-.9 1.2 0 1.4-.8.2-.8-1.5-2.7-2.1-3.6ZM-240.4 59.4s-.4 5.8 1 6c3 .2 1.4-2.2-.2-5.8-.2-.3-.7-1.5-.8-.2Zm125.1-8.5c-.6-.2-1.1-.6-1.8-.7-.5 0-.5.7-.6 1l-.1 1.7-.2.5c0 .4-.3 1.2.3 1.3l2.4.6c.4 0 .8.4 1.2.3.8-.3 1.3-.9 2.3-.8.4.1 1.4.6 1.6 0 .1-.2.6-2.8.2-3.2-.7-1-3.6-.2-5.3-.7Zm4.5 22.5c1.7-.5 3.3-2.2 3.3-2.2s1.5-3.8-.9-2.5c0 0-2.4.8-2.8 2-.3 1.2-1.3 3.2.4 2.7Zm59.6-13.2 1 1.3c.5.7 1.1 1.5 1.8 2.1.2.3 1.2 1.3 1 .4 0-.6-.2-1.3-.5-1.8-.4-1.1-.1-1.7.2-2.9.4-1.2 3-1.5 3-1.5 9.5-1.7 1.1-1.6-.1-1.8a16 16 0 0 0-3-.4c-.7 0-2.5 1.2-3.5 2.4-.3.3-.4.8-.4 1.3l.5.9Zm-54.5 7.7c.3.4.5.8.6 1.3v2c-.1 1.1-1 1.9-1.9 2.5-.7.5-1.7 1.2-1 2.2 1.1 1.3 3.5-.3 5-.9 1.3-.4 1.1-1.8.8-2.7-.4-1.4-1-2.6-1.1-4-.1-1.3-.7-2.3-1.1-3.6-.4-.8-1.2-.7-2 .5-.5 1 .1 1.8.7 2.7Zm-83.2 18c-3 .3 2 1.9 2 1.9.9.4 1.9.8 2.7 1.3l.8.5c.3.4.5 1 .9 1.2.5.4 1.9.2 2.5.2 2.8.2-3.4-4-4.5-4.7-1-.6-1.3-.9-4.4-.5Zm177.6 77.7-.5.6c-.4.6-.5 1.2.1 1.7 1.3.8 1.2.3 2.9-.2.3-.1 1.1-.3 1.2-.7 0-.3-.6-.5-.8-.7-.2-.3-.4-.6-.7-.7a5 5 0 0 0-1.2-.4c-.4 0-.7 0-1 .4Zm33.1 55c-.9.5-1.9.7-2.7 1.2h-.1c-.8.6-3 2.3-2 2.7.8.4 1.9 1.3 2.6.9.9-.6.8-1.3 2.8-1.4 1-.1 2.6-2.6 2.6-2.6s0-1.1-.4-1.9c-.5-.6-2.2.8-2.8 1.1ZM-1 166c1 1 1.2 2.5 1.1 3.6 0 .9 1 1.1 1.8 1.3.6 0 1 .1 1.5.3.6.2 1.1.6 1.3 1.2.4.7.3 1.5.5 2.3.1.5.4 1.2 1 1.2.7 0 1.5-.4 1.8.4.4 1 .9.8.9.8.2-.1 2-.6 2.6.2 3.3 4.8 2.3 1.6 1.6 0-.7-1.8-2.9-4.6-3.8-6.3-.9-1.6-3.7-1.2-5-1.8-1.4-.6-.6-1.8-1-2.8-.6-1-3.8-1-4.4-1.6-.6-.6-1-.8-.7-1.8 0-.1.2-1.5-.3-1.1-.2.1-.3.7-.4 1l-.3 1.2c0 1 .8.8 1.8 2Zm-24.3-23.8-.7-.2v.1l-.8 2.4c-.2 1 .2 1.9.1 2.8 0 .7 0 1.2-.2 1.9 0 0 .4 6 3.5 6.3 2 .3-.4-4-1.4-6-1-1.9-.7-3.4.4-4.7 1.1-1.4 1.8 1 3.6 2.9 1.7 2 1 1.2 3.4-.5 1.9-1.3 1.8-3.5 1.4-4.7-3.1.6-6.3.5-9.3-.3Zm24.4 8.5c-.4-1.3-1.4-2.2-1.9-3.4-.3-1-.9-1-.8-4 0-3-.7.5-1.4 2.2-.7 1.7.5 3.6.5 3.6.8 1.7-.4 3-.2 4.7.1.9.4 1.8.7 2.6.1.5.5 1.3 1 1 .9-.3 1-1.2 1.2-1.8.4-1.6 1.2-3.8.9-5Zm-15.5 6-2.6 1.2c-1.1.4-.5 1.5-.4 2.4l.3.7c.3.4.7.6 1.1.8h.1c.6.3 1.3.4 2 .6.4.2.9.3 1.4.2.4 0 .8-.3 1.1-.4.7-.3 1-.8 1.2-1.3.7-1.2 1-2.7 1.4-4 .7-2.4.3-2 .1-3.2 0-.6-1.9-.4-2.7-.1-.9.3-.8 1.4-1 2-.3 1-1.2.9-2 1.1Zm1.2 11.8c-.5-.2-1.6-.3-2.3-1.3-.8-1-5.1-2-5.1-2s-1.5-.4-1-1.6c.6-1.2 0-1.3-1-5-1-3.6-1.5-1.4-3.6-5.3-2.1-4-1.2-.3-1 1 .3 1.4 1.2 3.4 1.2 3.4l.3.6 1.4 3.1.7 1.5c.2.5.6 1 .7 1.6 0 .6-.2 1.3 0 1.8.3.4.9.6 1.3.7l5.9 1.7c11.4 3.3 3 0 2.5-.2Zm-65-10.9c-.4.6-1.7.6-2.5 1-.8.3-1.1 1.8-2 4.5-.2.7-.8 6.3 1 4.8 0 0 2.4-2 2.8-3.3.5-1.4 2-2.4 2.7-3.3.8-.8.9-2 .5-4.4-.3-2.3-2.4.7-2.4.7Z"/>
    </mask>
    <path stroke="#475566" stroke-opacity=".5" stroke-width="2" d="M-175.3 93.7c1.1.9-1.7.2-2.2 0-.5 0-1.2 0-1.3-.7l.1-.6c.2-.7 0-1.4 1.1-.6.9.6 1.6 1.4 2.3 2Zm203 119c-1-1.7-.4 1.4-1 2-.7.6-.7.6-.7 1.6 0 .3 0 1.6.2 1.8 1.2.9 1.6 0 2.3-1 .6-.9 1.2 0 1.4-.8.2-.8-1.5-2.7-2.1-3.6ZM-240.4 59.4s-.4 5.8 1 6c3 .2 1.4-2.2-.2-5.8-.2-.3-.7-1.5-.8-.2Zm125.1-8.5c-.6-.2-1.1-.6-1.8-.7-.5 0-.5.7-.6 1l-.1 1.7-.2.5c0 .4-.3 1.2.3 1.3l2.4.6c.4 0 .8.4 1.2.3.8-.3 1.3-.9 2.3-.8.4.1 1.4.6 1.6 0 .1-.2.6-2.8.2-3.2-.7-1-3.6-.2-5.3-.7Zm4.5 22.5c1.7-.5 3.3-2.2 3.3-2.2s1.5-3.8-.9-2.5c0 0-2.4.8-2.8 2-.3 1.2-1.3 3.2.4 2.7Zm59.6-13.2 1 1.3c.5.7 1.1 1.5 1.8 2.1.2.3 1.2 1.3 1 .4 0-.6-.2-1.3-.5-1.8-.4-1.1-.1-1.7.2-2.9.4-1.2 3-1.5 3-1.5 9.5-1.7 1.1-1.6-.1-1.8a16 16 0 0 0-3-.4c-.7 0-2.5 1.2-3.5 2.4-.3.3-.4.8-.4 1.3l.5.9Zm-54.5 7.7c.3.4.5.8.6 1.3v2c-.1 1.1-1 1.9-1.9 2.5-.7.5-1.7 1.2-1 2.2 1.1 1.3 3.5-.3 5-.9 1.3-.4 1.1-1.8.8-2.7-.4-1.4-1-2.6-1.1-4-.1-1.3-.7-2.3-1.1-3.6-.4-.8-1.2-.7-2 .5-.5 1 .1 1.8.7 2.7Zm-83.2 18c-3 .3 2 1.9 2 1.9.9.4 1.9.8 2.7 1.3l.8.5c.3.4.5 1 .9 1.2.5.4 1.9.2 2.5.2 2.8.2-3.4-4-4.5-4.7-1-.6-1.3-.9-4.4-.5Zm177.6 77.7-.5.6c-.4.6-.5 1.2.1 1.7 1.3.8 1.2.3 2.9-.2.3-.1 1.1-.3 1.2-.7 0-.3-.6-.5-.8-.7-.2-.3-.4-.6-.7-.7a5 5 0 0 0-1.2-.4c-.4 0-.7 0-1 .4Zm33.1 55c-.9.5-1.9.7-2.7 1.2h-.1c-.8.6-3 2.3-2 2.7.8.4 1.9 1.3 2.6.9.9-.6.8-1.3 2.8-1.4 1-.1 2.6-2.6 2.6-2.6s0-1.1-.4-1.9c-.5-.6-2.2.8-2.8 1.1ZM-1 166c1 1 1.2 2.5 1.1 3.6 0 .9 1 1.1 1.8 1.3.6 0 1 .1 1.5.3.6.2 1.1.6 1.3 1.2.4.7.3 1.5.5 2.3.1.5.4 1.2 1 1.2.7 0 1.5-.4 1.8.4.4 1 .9.8.9.8.2-.1 2-.6 2.6.2 3.3 4.8 2.3 1.6 1.6 0-.7-1.8-2.9-4.6-3.8-6.3-.9-1.6-3.7-1.2-5-1.8-1.4-.6-.6-1.8-1-2.8-.6-1-3.8-1-4.4-1.6-.6-.6-1-.8-.7-1.8 0-.1.2-1.5-.3-1.1-.2.1-.3.7-.4 1l-.3 1.2c0 1 .8.8 1.8 2Zm-24.3-23.8-.7-.2v.1l-.8 2.4c-.2 1 .2 1.9.1 2.8 0 .7 0 1.2-.2 1.9 0 0 .4 6 3.5 6.3 2 .3-.4-4-1.4-6-1-1.9-.7-3.4.4-4.7 1.1-1.4 1.8 1 3.6 2.9 1.7 2 1 1.2 3.4-.5 1.9-1.3 1.8-3.5 1.4-4.7-3.1.6-6.3.5-9.3-.3Zm24.4 8.5c-.4-1.3-1.4-2.2-1.9-3.4-.3-1-.9-1-.8-4 0-3-.7.5-1.4 2.2-.7 1.7.5 3.6.5 3.6.8 1.7-.4 3-.2 4.7.1.9.4 1.8.7 2.6.1.5.5 1.3 1 1 .9-.3 1-1.2 1.2-1.8.4-1.6 1.2-3.8.9-5Zm-15.5 6-2.6 1.2c-1.1.4-.5 1.5-.4 2.4l.3.7c.3.4.7.6 1.1.8h.1c.6.3 1.3.4 2 .6.4.2.9.3 1.4.2.4 0 .8-.3 1.1-.4.7-.3 1-.8 1.2-1.3.7-1.2 1-2.7 1.4-4 .7-2.4.3-2 .1-3.2 0-.6-1.9-.4-2.7-.1-.9.3-.8 1.4-1 2-.3 1-1.2.9-2 1.1Zm1.2 11.8c-.5-.2-1.6-.3-2.3-1.3-.8-1-5.1-2-5.1-2s-1.5-.4-1-1.6c.6-1.2 0-1.3-1-5-1-3.6-1.5-1.4-3.6-5.3-2.1-4-1.2-.3-1 1 .3 1.4 1.2 3.4 1.2 3.4l.3.6 1.4 3.1.7 1.5c.2.5.6 1 .7 1.6 0 .6-.2 1.3 0 1.8.3.4.9.6 1.3.7l5.9 1.7c11.4 3.3 3 0 2.5-.2Zm-65-10.9c-.4.6-1.7.6-2.5 1-.8.3-1.1 1.8-2 4.5-.2.7-.8 6.3 1 4.8 0 0 2.4-2 2.8-3.3.5-1.4 2-2.4 2.7-3.3.8-.8.9-2 .5-4.4-.3-2.3-2.4.7-2.4.7Z" mask="url(#c)"/>
  </g>
  <defs>
    <clipPath id="a">
      <path fill="#fff" d="m-152 .8 325.4 68.3-39.5 188-325.3-68.2z"/>
    </clipPath>
  </defs>
</svg>
