<svg xmlns="http://www.w3.org/2000/svg" width="171" height="378" fill="none">
  <g clip-path="url(#a)">
    <mask id="b" fill="#fff">
      <path d="M368.2 287.6c.8.1 1.5.4 2.2.8.8.6 1.6 1.5 2.7 1.8.7.2 3-.2 1.7-1.2-.9-.7-2.5-2.3-2.4-3.5.1-3-5.5-1-6.7-3-.6-1 .3-2.3-1.1-2.7-1-.2-2-.2-3-.1-1.3.2-1.3 1-.5 2 .6.8 1.5 1.5 2.3 2.3.8.7 1.4 1.5 2.1 2.3.7.8 1.7 1 2.7 1.3Zm-3.8-13.3s-2 1.4-2.9 1c-.8-.3-1.4-.3-1-1.5.4-1 1.6-.6 2.8-.5 1.2 0 3.6-.5 1 1Zm-7 12.7c1.5.6 1.7-.6 3.3-1.5 1.5-.9 1.1 1.1 1 3.3 0 2.2 3.2 1.1 4.3 1.1 1 0 .7-.6 3.8 2 3.1 2.4 3 2 2.8 4.7-.1 2.7-2.1 0-4-1.3-1.7-1.4-2.7-.5-3.5.7-.9 1.1 2.6 3.6 5.8 6 3.1 2.4 2.3 2.8 3.1 4.8.8 2 5.5 3.3 7.2 4.1 1.7.9 9.8 9.8 11 11 1.3 1.2 1.1 2.9 1.6 4.3.6 1.4-1.5 2.7-2.3 3.6-.8.8 1.8 1.9 2.8 2.8 1 1 .2 1.3-.4 2-.7.8-1.1.5-2.2-.7s-1.8-1.5-2.6-.7c-.8.7 1.2 1.8 2 2.7 1 1-1 2.2-2.5 3.4-1.5 1.2-2.2.1-3 0-1-.2-2.2-.4.4 5.8 2.6 6-.9 1.1-1.3.1a36 36 0 0 0-3.7-6.1c-1-1-1.4-3.5-1.6-5.8-.3-2.2-4.6-5.4-7.4-8-2.8-2.7-11 1-13.2.6-2.3-.3-9.8 7.1-11.9 9.4-2.1 2.2-5.3 2.2-6.7 2.2-1.4 0-7.2 2.2-11.8 3-4.7.8-.4-1.7 1.7-2.7 2.1-1-.4-.7-.4-.7s-7.6.6-10.1 1.8c-2.6 1.2-7.2-.1-9.4-2-2.2-1.8-2.7-1.2-2.7-1.2s-.6.9-3.4-1.2c-2.7-2-4.1.2-5.9 0-1.7-.2-4-1-5.4-2.3-1.4-1.3-.8-1-2-.2-1.3.8-1.7 3.1-1.7 4.6 0 1.4-1.6 3.2-3.6 5.2s-3.1 1.7-3.1 1.7-11 2.8-12.6 2.4c-1.6-.3-2.8 1.2-2.8 1.2l-10.6 11c-.7.8-.6.9-.9 2.5-.2 1.6-2.3 3.5-2.3 3.5l-9.3 9.8c-.7.7-2.6.6-7.7-1-5.2-1.4 0-1.7.9-2 1-.3 2.3-2.1 3.5-3.4 1.2-1.2.8-2.8 1-4 .4-1.1 1.3-1.3 2.6-2.6 1.2-1.3.4-3.4.4-3.4v-17.2c.1-1.4 1.4-3 2.3-3.7.9-.8.7-5.5.3-7.9a13 13 0 0 1 1.8-7c.6-.6 2-2.1 1.7-3.7-.3-1.6 1.3-3.1 2.4-5 1.2-2 4.4.7 7.3 1.2 2.9.6 6 3 6.3 3.2.2.3 1.3 1.6 2.2.6.8-1 3.1-1.8 4.3-2.2 1.2-.3 2 .4 2.8 1.2.8.9 5.8 1 7.6 1.3 1.9.4 3.6 3.2 5.4 4.2 2 1 1.2.3 2.9 1.2 1.7 1 .5 3.4 1 4.2.4.8 2.6 2.8 3.4 3.4.9.6 2.7-.2 4-1.2 1.4-1 2.3-1.1 3.8-.7 1.6.4 3-.7 3.7-1.7.8-1 1.5-.5 2.3.2.7.7.4 1 0 1.8s-.1 1.7 1.7 3c2 1.2 4.4 0 6.1-1.4 1.7-1.3 2.5-2.2 2.3-4.1-.2-2-1-1.8-2.6-2.9-1.6-1.2-1.8-2.9-1.8-4.7 0-2-2.7-1.4-2.7-1.4l-3.9 1c-3.8.8-1.3-1.4 1.3-3.3 2.7-2 2.7-16.2 2.6-18.3 0-2.1-.4-1.6-2.1-3.5-1.7-2-.6-4.6-1-6.4-.3-1.8 2.2.6 3.9 1.1 1.7.5 0-1.5-.4-2.4-.3-1-1.5-2.6-3.5-4.3-2-1.7 9-3.8 10.5-3.7 1.5 0 2.4-1.4 3.8-2 1.4-.8 1 2.2.8 4.3-.2 2 .8.8 1.4 0 .5-.9 2-.9 3.3-1.5 1.2-.7 3.3 2 4.2 2.7 1 .8.7.8-.4 2.5-1.2 1.7-2.5 2.2-4 3.3-1.6 1-2 4.4-2 6.1 0 1.8 1.3.9 2.2 0 1-1 1.3-.3 2.5.5 1.2.9 1.3 1 2.6.4 1.4-.6 3.6-.1 5 1 1.3 1.3 3.1-1.4 4-2.4 1-1.1-.9-3-1.3-3.8-.5-.8-.9-2.5-3-2.3-2.3.1-2.1-2-2.1-2s-.4-2.8.3-3.6c.7-.7.8-.1 1.8.8 1 1 1.2 1.2 2 .3.8-.9 1-1-.8-2.7-1.8-1.8.6-2.6.5-4.2 0-1.7-1.5-1.9-2.9-.1-1.4 1.7-2-1.3-3.5-1.9-1.4-.6-1.5.4-.8 1.4.8 1.1-.1.8-1.3 1.5s-.9.6-4-2c-3-2.5.9-1.6 1.3-1.7.5 0 2.1 0-.6-2.3-2.7-2.4.9-3 .9-3s4.8-1.3 7.6 0c2.8 1.1 2.2.6 4.6.3 2.4-.3 5.9 4.4 7.2 5.5 1.3 1.1.4 1.9.3 3.3-.2 1.3-2.4.7-5 3-2.5 2.4 1.2 1.8 1.2 1.8s2-.3 3.3-.8c1.4-.6 2-1 2.1-2.3.1-1.3.6-2.3 3.4-2.7 2.7-.3 4.3 0 4.9.5.6.4-.6 1.3-1.5 2.1-1 .9-1.3.2-2.5.1-1 0-1.8 1.2-2.6 2.3-.8 1.2-.1.5 2.3-.1s2.2.8 2 2.6c-.2 1.8-3 .3-4.9 2-1.9 1.9.7 1.4.7 1.4s2.3-.2 3.9.3Zm-1 69s-4.8 3.2-5.6 2c-1.8-2.4 1.1-2.2 5-2.6.4-.1 1.7-.2.6.5Zm-53.6-34.4-.8-.4c-.5-.1-1 0-1.5-.2-.6-.2-1.1-1.6-1.4-2.1-1.5-2.3 5.1 1 6.3 1.6 1 .7 1.5.7 2.7 3.6 1.1 2.8-2.7-.7-2.7-.7-.9-.7-1.7-1.3-2.6-1.8Zm-5.6-3.3-.5.5c-.6.2-1-.4-1.3-.8-.4-.3-2.3-2.5-1-1.9l2.7 1c1.3.6.5.8.1 1.2Zm60.4-45.1c-1 .3-1.3-.2-1.8-.4-.6-.2-1.1.1-2.3 1.1-1.1 1-4.2-2.7-6.5-5-2.3-2.4.4-2.1 3.3.8 1.3 1.3 1.7 1.3 2.7 1 1-.4 1.7.1 2.9.6s1.5 0 3.2 0c2.2-.1-.6 1.5-.6 1.5l-1 .4Zm-10-8.4c-1.7-1.6-.3-5.1 0-5.6.4-.5 0-2.2-1.3-3.5-1.3-1.3-2-2-2-3.3.1-1.3.4-.3-1-2.7-1.5-2.3-.9-2.9-.1-3.6.7-.7 3.8 2.4 4.7 3.2.8.9.2 1.3.5 2.8.4 1.5 6.6 6.4 8.4 8.1.2.2.4.4.4.6-.5.1-1.4-.5-1.8-.7-.7-.3-1.3-.2-2-.3-.6-.2-1.1-.6-1.6-1-5.2-4-2-.2-1.6.2.3.4 1.1.8.3 1.9-.8 1 .9 1.7 1.5 2.4.6.6.4.3 1.6-.9 1.2-1.2 3.7 1.7 4.9 3 1.1 1.1-.4 1.7-1.4 2.9-1 1.2-1.3.9-2.6-.2-1.3-1-1.2-.3-2 .2-.9.6-2.7-1.3-2.7-1.3l-2.2-2.2Zm-7.5-19.4s1.4.7 1.2 2c-.2 1.4-.9.9.4 2.2 1.3 1.3 1.1 1.3.6 2.3-.4 1.1-.5 2.5.4 3.4 1 .9 2.8 2 2 2.6-1 .6-4 1.2-4.7.7-.7-.6-5.4-6.4-8-4.8-2.7 1.6-5.3 6-6.9 5.7-1.6-.4-1.8.7-1.6 1.3.1.5 1 .6 0 1.6-1 1.1-1 .3-2.4.6-1.5.3-1.4-.3-2.7 1-1.3 1.4-1.7 2-2.8 1.2-1.2-.8-2.8-.8-3.5-.5-.6.4-1.2-1-.8-1.9.3-.8 1.3-8 .4-9-.8-1-2.6-2.4-1.8-3.3.8-.9 2.4-1.5 1.3-2.7-1.1-1.2-3.3-3.3-3.3-5.3.1-2-.8-5.1 1.4-3.6 1 .7 2.5.7 3-.6 0-.2-1.4-1.3-1.6-1.5-.4-.6-.8-1.3-.6-2l1-3.6c.2-1 .2-3.7 2.1-2.3.7.3 1.5 0 1.4-1.4 0 0 1.3-3.5.2-4.6-.4-.3-3.4-3.6-2.4-3.7.6 0 .6 0 3 2 .3.3.7.2 1.1.3.5.3 1 .8 1.3 1.2 2 2 1.2 1.4 2.8 1.5 1.5.1 2.3 1 5.9 4.5 3.6 3.6 5.4 4.5 5.5 6.2.1 1.6-.8 1.7 1.1 3.6 2 1.8 7 6.9 7 6.9Zm-38.5.7-.4.3c-.2.3-.8.9-1.2.5l-1.7-1.8c-.3-.3-.8-.5-.8-1-.2-.8 0-1.5-.5-2.3-.3-.3-1.2-1-.8-1.4.1-.2 2.2-1.9 2.7-1.8 1.3.2 2 3 3.4 4.3.4.4 1 .7 1.4 1.2.3.5-.3.8-.6 1-.7.3-1 .6-1.5 1Zm-18.4-.5s.5 2.5-.3 3.5c-.8.9-2.1 2.7-2.5 1-.5-1.7.2-4 .2-4s2.6-3.2 2.6-.5Zm-2-2.6-1.7 1c-1 .7-1.2 1.8-1.3 2.9-.1.9-.2 2.1-1.4 1.9-1.7-.3-1.5-3.2-1.8-4.8-.2-1.2 1-1.8 2-2 1.4-.2 2.8-.3 4-.9 1.2-.6 2.5-.6 3.7-.8 1-.2 1.3.6.6 1.8-.7 1-1.7 1-2.7.8l-1.4.1Zm-14-10.9c1.1 1.6 1.6 2.7 3.2 3.6 1 .6 2.6-1.8 3.5-1.2.4.2 1 .3 1 .7 0 .3-.5.6-.7.8-.4.4-1.6 1-1 1.7.6.8.7 0-.4 2-1 2 0 4.2.1 5 .3.9.4 2.4 1.6 3.6 1.3 1.2 1.1 1.8-.6 1.5-1.3-.2-2.2.5-3.1 1.4-.5.3-2 1.5-1.5 2.1.6.8 3 2.8 3.9 3.7.9 1-.9 2-1.7 3-.8.9-1.4 1-1.7.8-.4-.2-1.5-.6-2.6-.1-1.2.5-2-1.1-3.4-2.3-1.3-1.2.4-2.4.7-3.2.4-.7 1.1-.6 0-1.9-1.3-1.2-1-2.5-.2-3.5.8-1.1-1-1.2-1.5-3.1-.4-2-4.6-1.6-6-1.8-.8 0-2.7-.3-2.8 0-.3.8 2.3 2 .7 2.6-2.3.7-2.4-.7-2.1-3.4.2-2.6 4.2-1.2 5-1 1 0 3.1.4 3.3-1.5 0-2-4.5-1.4-4.5-1.4-1.6-.2-5 .4-7 1.6-2 1.2-2.3 1.1-3.9-.2s1.4-2 2.3-2.6c1-.5 1.2-.6.2-1.5s-3.2.5-4.4.7c-1.2.1-3.5-1.2-4-2.2-.4-1-.3-1.6-2.1-1.5-1.8 0-1.8 4.2-1.3 4.9.5.7 1 2.6 3.2 3.3 2.3.6 2.4 1 4.4 2.3 2 1.3.8 2 .3 3.4-.6 1.4 1 1.4 1.7 1.3.9 0 5.4 1.4 7.3 1.7 2 .3 2.5-.7 3.7-1.2 1.2-.4 1.8 1.6 1.8 2.1s1 1.6 2 2.6 1.6 1.1 1.4 2.5c-.1 1.3.2.8.6 2.7.4 1.8 1.8 2.6 3.2 4.4 1.5 1.9-2 4.5-2.6 5-.6.6-.9 1.5 0 2 .7.5-1.4 5-1.3 6.5.1 1.4-2.4 3.2-3.2 3.9-.7.7-.7 1.9-.4 2.4.2.6-2.7 2.6-3 3.5-.3 1-2.9-.8-2.9-.8-.4.1-2.3-.8-4.6-.3-2.8.6-3.8-.6-3.8-.6l-9.4-9.1a3.4 3.4 0 0 0-2.7-1c-1 .1-2.5.6-2.7 1.7-.3 1-1.3 2.4-2.5 2.5l-2-.3c-1.8-.4-5.2 2.3-6.8 3.9-1 1-1.9 2.2-2.6 3.6-.3.4-.5.8-.5 1.3-.2.8-.3 1.1-.9 1.6-.8.8-1.5 1.9-2.7 1.3-.8-.3-4.1 1.5-4.1 1.5s-8.2 4-9.8 5c-1.6 1-2.1.4-2.5 0-.4-.4-1-.8-.5-1.5.4-.6-.2-1-.2-1s-.5-.3-2.4-2.3c-2-2-.3-6.4-.3-7.4s0-1.1 1-2c1-1 1-1.2 0-2.3-.9-1 0-1.7 2-3.7 1.8-2 1.4-3.5 1.3-6 0-2.7 6-7 8.1-9 2.2-2 1.8-4.4 1.8-4.4s2-11.2 2-14.6c.1-3.5 2.4-.4 2.4-.4s2.4 2.5 3.7 3.5c1.3 1 4.9-.2 6-.3 1.2-.1 3.6 0 5-1a19 19 0 0 1 3.2-1.9c.4-.1 2.7-.2 4.2-1.4 3.5-2.9-.1-1.6-.1-1.6s-1.3.4-4 0c-2.8-.3-7.7 3-10 3.8-2.4.8-2.3 1-4.8-1.4-2.5-2.3-2.3-9.2-2.7-10.8-.3-1.7.8-2.2 2.1-2.7s2 .5 4 1.8c1.9 1.3 4.4-.2 6.8.3 2.4.5.9-.7-.3-1.6-1.1-1-1.8-.5-2.9-.4-1.2.2-2.3-.2-3.8-2-1.6-1.7-3.3-2-4.1-2-.9.2-2.4-.5-2.4-.5s-2.8-2.7-3.5-2.7c-.7 0-1.5 1.3-3.5-.3s-6.4 1.1-6.4 1.1-5 4.2-7 3.7c-4-.8 1.6-5.3 2.5-6.4.8-1-.5-5.3-1-6.6-.3-.6 0-1.3.4-1.7.2-.4 1-.8 1-1.3 0-.3-.7-1-1-1.2-.6-.4-1-1.6-2.3-.8-1.3.9-3.9.9-3.9.9a4 4 0 0 1-2.2-.7c-.5-.4-1-1.2-1.6-1.4-1-.2-1.8 1.4-2.3 2l-1.7 2c-.8.5-1.7.7-2.5 1.2l-1.5 1s-5.5 2.7-7.3.2c-1.2-1.7 3.8-1.7 6-1.7 2-.1 3.2-1.2 3.9-2.8.6-1.6-1.7-1-4.3-1.6-2.6-.6-1.6-.3-1.3-3.2.2-2.9 3.3-3.7 4-3.7.9 0 4.8-.6 3.5-3.3-1.3-2.6-3.1-4.6-4-5.8-1-1.2.2-2.3.9-6.5.7-4.3 5.5-5.8 7.5-6.4 2-.6 2.9-1.1 3-3.5.1-2.4-3.2-1-3.2-1s-3 .7-6.3 1.2c-3.3.4-1.1-2.5-.8-3.3.3-1 2-.8 3.4-1 1.4-.4 2.1-2.4 2.4-3 .3-.6-1.1-4.6-1.6-5.7-.6-1.2 0-3.5 2.6-7 2.7-3.6-1.4-.8-1.4-.8l-8.2 8.3c-1.2 1.4-1.9 1.9-1.2 4.4.6 2.6 1 2.5 1.7 3.6.6 1 .7 1.6-1.3 3.7-1.9 2.1-1.8 0-1.4-.6.3-.6 1.3-2.4.1-3.3-1.2-1-1.7-3.8-2-5.5-.2-1.8 2.2-3.3 3.3-4.5 1.2-1 1-.6 0-1.7-1-1-.5-.8.3-1.8.7-1.1 1.3-.8 2.3 0 1 1 1.6-.1 1.6-.1s4.3-4.8 5.6-5.7c1.2-.8 4-1 6.6 1.7 2.5 2.9 2-4.9 2-7.5 0-2.6-2.1-2.9-2.1-2.9s-2.3-.7-4.8-2.3c-2.6-1.6 0-2.3.9-3.7.8-1.4-.6-1.8-3.5-2.4-3-.5-1.8 5-2 6-.2 1-3 1.9-6 2.8-2.9 1-.4-1.3.2-2.2.7-1 1.5-1.6 1.2-3-.2-1.3 1.3-1.9 2.9-3.5 1.5-1.6.2-2.5-1.6-4.2-1.8-1.6-1.4-2.5-1.5-3.1-.2-.7.6-1-1.7-4-2.3-2.8 9.6-4.2 10.5-4.2 1 0 8.2 7.8 10.1 9.5 2 1.7 3 .5 3.9.4.8-.1 4.6 4.3 5.4 5 .9.8 3.3 0 4 .5.8.6.4 1.5.5 2.8 0 1.2 1.4-.2 2-.7.7-.5 1.3-.3 2.3.2 1 .5-1 2.4-1.6 3.1-.6.8 5.6 6.3 6.8 7.4 1.2 1.1 2.8.2 4.3-1 1.6-1 1.4 1.5 1.4 1.5l2.7 3s4.9 4.4 6 5.8c1 1.4 1.4-1.5 1.5-3 .2-1.4 4.4.4 5.1.4.7 0 2.8 2.9 3.5 3.2.7.3 1.8-.2 1.7.2 0 .4-.6 1.4-.5 2.4.2.9.9 1.3 1.5 2 .6 1-.1.8 2.5 3.1 2.7 2.4 1.2 4.2 1 5.9 0 1.7 1.4 3 2 3.6.5.7-1 1.7-1.4 2.8-.4 1 2.5.4 3.1.6.7.2-.8 1.5-.8 1.5s-4.2 4.4-4.4 5c-.3.6 4.8-1.7 5.6-2.6.8-.9 3.3-2 3.8-2.2.4-.2.3.6.1 1.8-.1 1-1.7 2.1-2.5 3.2-.8 1 .2 1 1.6 2.5 1.5 1.4 1.3 2.1 1.3 3.2 0 1.2 2.4 3.2 3.7 4.4 1.3 1.2 1.2 2.5 1.7 4.4.4 1.8 1.2.4 3 .1 1.7-.3.3 1.7 0 2.8-.3 1.2 3.8 1.3 5.7 1.5 1.8.1 1.9 1.4 2.4 1.9.6.5 1 1.4 2.5 1 1.6-.4 3 1.2 5.2 2.3 2.3 1 1.6 2.8 2.8 5.2 1.1 2.3.6 3.8.6 3.8l-.9 1.1c-.9 1.1-.7 3.5-.9 5.2-.1 1.7 1.3 3.2 1.7 4.5.4 1.2-2.8 3.3-3.8 4.4-1 1-2-1.4-3.2-2.5-1-1-1.4.4-1.7 1-.2.4.4 1 .3 1.2 0 .1 0 .2-.2.3-.5.2-1.2.1-1.8.3-1.8.4-1.1-1.3-1.1-1.3l.7-5c.4-2 3-1.6 3.2-3.7.3-1.8.2-3.7 0-5.4-.4-2.9-1.5-2.4-2.7-2-1.2.2.7 4-.3 6.7s-2.6-1.2-3.4 1.2c-2 5.2-2.3 6.4-1.1 8.1Zm-6.3-40.7c-1 0-1.9-.2-2.8-.5-.3 0-1.7-.4-.9-.7.6-.3 1.3-.4 1.9-.5 1.2-.1 1.5-.7 2.4-1.5.9-1-.2-3.4-.2-3.4-3.2-9 .9-1.8 1.7-.8a16 16 0 0 1 1.8 2.5c.3.5.2 2.7-.3 4.2-.2.4-.6.7-1 1a2 2 0 0 1-1 0l-1.6-.3Zm-68.4 76.2c.1.8-1.1 1.9-3 3.9-.5.5-5 3.8-4.7 1.5 0 0 .6-3 1.5-4 1-1.1 1.2-3 1.5-4 .4-1 1.4-1.8 3.6-2.7 2.2-.8.6 2.6.6 2.6-.2.6.4 1.8.5 2.7Zm-26.9-48-3.3.3-1.7.1c-.5 0-1.2 0-1.7.2s-1 .8-1.6.8c-.5 0-1-.4-1.2-.7l-4.4-4.3c-8.6-8.3-1.6-2.6-1.1-2.3.4.3 1 1.2 2.3 1.4 1.2.2 4.2 3.4 4.2 3.4s1.1 1.1 1.9 0c.7-1 1-.5 4.8-1.5 3.7-1 2 .6 6.5.5 4.4-.1.8.9-.5 1.3-1.4.5-3.5.7-3.5.7h-.7Zm-13.1-11c-.4.7-.8 1.1-1.5.8-1.4-.8-.9-1-1.2-2.6-.1-.3-.4-1.2 0-1.4.2-.2.7.3 1 .4.3 0 .7 0 .9.2l.9.9c.3.4.4.7.2 1 0 .3-.2.5-.3.7Zm3.7 2.8c-.3-.3-.7-.7-.9-1.2-.2-.4-.1-.8-.2-1.2 0-.7.2-1.2.5-1.6.8-1.3 2-2.3 2.9-3.3 1.7-1.8 1.7-1.2 2.7-1.6.5-.3 1.3 1.4 1.4 2.3.2 1-.8 1.4-1.3 2-.6.6 0 1.4 0 2.1l.4 2.9c.1 1.2-1 1.2-2 1.5l-.7.1c-.5 0-.9-.3-1.2-.6h-.1l-1.5-1.4Zm2-14-2.6.6c-.4.2-1.3.2-1.4-.4-.1-.9.6-1.4 1-1.9 1.2-1 2.6-2.8 3.8-3.2 1.3-.3 2.6.1 3.9 0 1-.2 1.3.2 3.9-1.3 2.6-1.5-.1 1-1.3 2.3-1.1 1.4-3.3 1.3-3.3 1.3-1.8.2-2.4 1.9-4 2.5Zm-19.1 1.4c-.5-.4-1-.6-1.7-.6-.9.1-1.5.6-2.2.7-.5.2-1.3.4-1.7-.2-.3-.6-.3-1.5-1.1-1.4-1.2.2-1.2-.4-1.2-.4 0-.2-.5-2-1.5-2.1-5.8-.5-2.5-1.2-.6-1.4 1.8-.3 5.4.2 7.2.2 1.8 0 3 2.6 4.1 3.5 1.2.9 1.8-.4 3-.5 1.1 0 2.7 2.8 3.5 3 .8.3 1.1.4 1.8-.3.1-.1 1.3-.8 1.2-.3 0 .3-.5.6-.7.8l-.9.9c-.8.6-1-.3-2.5-.6-1.5-.4-2.7.2-3.7.8-.7.5-1.5-.3-2-1l-1-1Zm-32 22.8c.2.1.7.5.5.8-.1.3-.8.1-1 .3-.3.3-1 1.3-2 .5-1-.7-.6-1.4 0-2.5l.5-.4c.3 0 .6.2.8.4l.6.5.6.4Zm31-11.6c.8 1.1 1.1 2.7 1.5 4 .3.8.5 1.8.2 2.6s-1.2 1.6-1.7 2.3c-.5.8 1.8 1.9 2.4 2.6.5.8-.3 1.2-.3 1.7s1.2 1.1 1.8 2c.8 1-1.3 2.3-1.8 3l-1.4 2.3c-.9 1.5-1.5.7-2.3.4-1-.2-2 2-3 2.8-1 .8-2.9.5-3.9.1-.7-.2-1.2-.9-1.7-1.4-.6-.6-1.2-1.1-1.7-1.8-.4-.7-.3-1.5-.5-2.4a5 5 0 0 0-1.8-3.1l-3-2.6c-.6-.5-1.3-1.5-2.1-1-.6.4-1 1-1.6 1.3-1.2.9-1.6-.2-2.4-1-.9-.9-1.6-.2-2.4.2-1.4.7-2.1-.1-3.1-1l-2-2c-1-1.3-.6-3.1-.6-3.1s1-4.1 1.2-5.9c.3-1.8 2.3-4.4 4-6.2 1.8-1.8 6.9-2 6.9-2l8.6-1c1.3 0 1.6-1.1 2.6-1.6.8-.6.3 1.1.7 2 .5.7-2.3 3-2.7 3.3-.3.4.5 1 1.4 1 1-.2 1 .2 2 .4 1 .3 2 0 3-1 1-.9 1.7.5 3 1.6 1.2 1.1.3 1 0 1.8-.3.6 0 1 .4 1.5l.2.2Zm-49.2-.7c0 1-.4 3.8-1.3 3.2-.8-.6-2-1-2-2s.6-1.3-.2-3.1c-.4-1 1-3.5 1-3.5s1-.5 1.8-.6c.7 0 .4 2.2.4 2.9l.3 3Zm-2.3-9.6c.5-1-.5-1.2 0-1.7.6-.6 3.2 0 4.2 0 2 .2-1 1.2-1.2 2-.2.9-.2.9-1.1 1.4-.3 0-1.3.8-1.6.7-1.4-.7-.8-1.4-.3-2.4Z"/>
    </mask>
    <path stroke="#475566" stroke-opacity=".3" stroke-width="2" d="M368.2 287.6c.8.1 1.5.4 2.2.8.8.6 1.6 1.5 2.7 1.8.7.2 3-.2 1.7-1.2-.9-.7-2.5-2.3-2.4-3.5.1-3-5.5-1-6.7-3-.6-1 .3-2.3-1.1-2.7-1-.2-2-.2-3-.1-1.3.2-1.3 1-.5 2 .6.8 1.5 1.5 2.3 2.3.8.7 1.4 1.5 2.1 2.3.7.8 1.7 1 2.7 1.3Zm-3.8-13.3s-2 1.4-2.9 1c-.8-.3-1.4-.3-1-1.5.4-1 1.6-.6 2.8-.5 1.2 0 3.6-.5 1 1Zm-7 12.7c1.5.6 1.7-.6 3.3-1.5 1.5-.9 1.1 1.1 1 3.3 0 2.2 3.2 1.1 4.3 1.1 1 0 .7-.6 3.8 2 3.1 2.4 3 2 2.8 4.7-.1 2.7-2.1 0-4-1.3-1.7-1.4-2.7-.5-3.5.7-.9 1.1 2.6 3.6 5.8 6 3.1 2.4 2.3 2.8 3.1 4.8.8 2 5.5 3.3 7.2 4.1 1.7.9 9.8 9.8 11 11 1.3 1.2 1.1 2.9 1.6 4.3.6 1.4-1.5 2.7-2.3 3.6-.8.8 1.8 1.9 2.8 2.8 1 1 .2 1.3-.4 2-.7.8-1.1.5-2.2-.7s-1.8-1.5-2.6-.7c-.8.7 1.2 1.8 2 2.7 1 1-1 2.2-2.5 3.4-1.5 1.2-2.2.1-3 0-1-.2-2.2-.4.4 5.8 2.6 6-.9 1.1-1.3.1a36 36 0 0 0-3.7-6.1c-1-1-1.4-3.5-1.6-5.8-.3-2.2-4.6-5.4-7.4-8-2.8-2.7-11 1-13.2.6-2.3-.3-9.8 7.1-11.9 9.4-2.1 2.2-5.3 2.2-6.7 2.2-1.4 0-7.2 2.2-11.8 3-4.7.8-.4-1.7 1.7-2.7 2.1-1-.4-.7-.4-.7s-7.6.6-10.1 1.8c-2.6 1.2-7.2-.1-9.4-2-2.2-1.8-2.7-1.2-2.7-1.2s-.6.9-3.4-1.2c-2.7-2-4.1.2-5.9 0-1.7-.2-4-1-5.4-2.3-1.4-1.3-.8-1-2-.2-1.3.8-1.7 3.1-1.7 4.6 0 1.4-1.6 3.2-3.6 5.2s-3.1 1.7-3.1 1.7-11 2.8-12.6 2.4c-1.6-.3-2.8 1.2-2.8 1.2l-10.6 11c-.7.8-.6.9-.9 2.5-.2 1.6-2.3 3.5-2.3 3.5l-9.3 9.8c-.7.7-2.6.6-7.7-1-5.2-1.4 0-1.7.9-2 1-.3 2.3-2.1 3.5-3.4 1.2-1.2.8-2.8 1-4 .4-1.1 1.3-1.3 2.6-2.6 1.2-1.3.4-3.4.4-3.4v-17.2c.1-1.4 1.4-3 2.3-3.7.9-.8.7-5.5.3-7.9a13 13 0 0 1 1.8-7c.6-.6 2-2.1 1.7-3.7-.3-1.6 1.3-3.1 2.4-5 1.2-2 4.4.7 7.3 1.2 2.9.6 6 3 6.3 3.2.2.3 1.3 1.6 2.2.6.8-1 3.1-1.8 4.3-2.2 1.2-.3 2 .4 2.8 1.2.8.9 5.8 1 7.6 1.3 1.9.4 3.6 3.2 5.4 4.2 2 1 1.2.3 2.9 1.2 1.7 1 .5 3.4 1 4.2.4.8 2.6 2.8 3.4 3.4.9.6 2.7-.2 4-1.2 1.4-1 2.3-1.1 3.8-.7 1.6.4 3-.7 3.7-1.7.8-1 1.5-.5 2.3.2.7.7.4 1 0 1.8s-.1 1.7 1.7 3c2 1.2 4.4 0 6.1-1.4 1.7-1.3 2.5-2.2 2.3-4.1-.2-2-1-1.8-2.6-2.9-1.6-1.2-1.8-2.9-1.8-4.7 0-2-2.7-1.4-2.7-1.4l-3.9 1c-3.8.8-1.3-1.4 1.3-3.3 2.7-2 2.7-16.2 2.6-18.3 0-2.1-.4-1.6-2.1-3.5-1.7-2-.6-4.6-1-6.4-.3-1.8 2.2.6 3.9 1.1 1.7.5 0-1.5-.4-2.4-.3-1-1.5-2.6-3.5-4.3-2-1.7 9-3.8 10.5-3.7 1.5 0 2.4-1.4 3.8-2 1.4-.8 1 2.2.8 4.3-.2 2 .8.8 1.4 0 .5-.9 2-.9 3.3-1.5 1.2-.7 3.3 2 4.2 2.7 1 .8.7.8-.4 2.5-1.2 1.7-2.5 2.2-4 3.3-1.6 1-2 4.4-2 6.1 0 1.8 1.3.9 2.2 0 1-1 1.3-.3 2.5.5 1.2.9 1.3 1 2.6.4 1.4-.6 3.6-.1 5 1 1.3 1.3 3.1-1.4 4-2.4 1-1.1-.9-3-1.3-3.8-.5-.8-.9-2.5-3-2.3-2.3.1-2.1-2-2.1-2s-.4-2.8.3-3.6c.7-.7.8-.1 1.8.8 1 1 1.2 1.2 2 .3.8-.9 1-1-.8-2.7-1.8-1.8.6-2.6.5-4.2 0-1.7-1.5-1.9-2.9-.1-1.4 1.7-2-1.3-3.5-1.9-1.4-.6-1.5.4-.8 1.4.8 1.1-.1.8-1.3 1.5s-.9.6-4-2c-3-2.5.9-1.6 1.3-1.7.5 0 2.1 0-.6-2.3-2.7-2.4.9-3 .9-3s4.8-1.3 7.6 0c2.8 1.1 2.2.6 4.6.3 2.4-.3 5.9 4.4 7.2 5.5 1.3 1.1.4 1.9.3 3.3-.2 1.3-2.4.7-5 3-2.5 2.4 1.2 1.8 1.2 1.8s2-.3 3.3-.8c1.4-.6 2-1 2.1-2.3.1-1.3.6-2.3 3.4-2.7 2.7-.3 4.3 0 4.9.5.6.4-.6 1.3-1.5 2.1-1 .9-1.3.2-2.5.1-1 0-1.8 1.2-2.6 2.3-.8 1.2-.1.5 2.3-.1s2.2.8 2 2.6c-.2 1.8-3 .3-4.9 2-1.9 1.9.7 1.4.7 1.4s2.3-.2 3.9.3Zm-1 69s-4.8 3.2-5.6 2c-1.8-2.4 1.1-2.2 5-2.6.4-.1 1.7-.2.6.5Zm-53.6-34.4-.8-.4c-.5-.1-1 0-1.5-.2-.6-.2-1.1-1.6-1.4-2.1-1.5-2.3 5.1 1 6.3 1.6 1 .7 1.5.7 2.7 3.6 1.1 2.8-2.7-.7-2.7-.7-.9-.7-1.7-1.3-2.6-1.8Zm-5.6-3.3-.5.5c-.6.2-1-.4-1.3-.8-.4-.3-2.3-2.5-1-1.9l2.7 1c1.3.6.5.8.1 1.2Zm60.4-45.1c-1 .3-1.3-.2-1.8-.4-.6-.2-1.1.1-2.3 1.1-1.1 1-4.2-2.7-6.5-5-2.3-2.4.4-2.1 3.3.8 1.3 1.3 1.7 1.3 2.7 1 1-.4 1.7.1 2.9.6s1.5 0 3.2 0c2.2-.1-.6 1.5-.6 1.5l-1 .4Zm-10-8.4c-1.7-1.6-.3-5.1 0-5.6.4-.5 0-2.2-1.3-3.5-1.3-1.3-2-2-2-3.3.1-1.3.4-.3-1-2.7-1.5-2.3-.9-2.9-.1-3.6.7-.7 3.8 2.4 4.7 3.2.8.9.2 1.3.5 2.8.4 1.5 6.6 6.4 8.4 8.1.2.2.4.4.4.6-.5.1-1.4-.5-1.8-.7-.7-.3-1.3-.2-2-.3-.6-.2-1.1-.6-1.6-1-5.2-4-2-.2-1.6.2.3.4 1.1.8.3 1.9-.8 1 .9 1.7 1.5 2.4.6.6.4.3 1.6-.9 1.2-1.2 3.7 1.7 4.9 3 1.1 1.1-.4 1.7-1.4 2.9-1 1.2-1.3.9-2.6-.2-1.3-1-1.2-.3-2 .2-.9.6-2.7-1.3-2.7-1.3l-2.2-2.2Zm-7.5-19.4s1.4.7 1.2 2c-.2 1.4-.9.9.4 2.2 1.3 1.3 1.1 1.3.6 2.3-.4 1.1-.5 2.5.4 3.4 1 .9 2.8 2 2 2.6-1 .6-4 1.2-4.7.7-.7-.6-5.4-6.4-8-4.8-2.7 1.6-5.3 6-6.9 5.7-1.6-.4-1.8.7-1.6 1.3.1.5 1 .6 0 1.6-1 1.1-1 .3-2.4.6-1.5.3-1.4-.3-2.7 1-1.3 1.4-1.7 2-2.8 1.2-1.2-.8-2.8-.8-3.5-.5-.6.4-1.2-1-.8-1.9.3-.8 1.3-8 .4-9-.8-1-2.6-2.4-1.8-3.3.8-.9 2.4-1.5 1.3-2.7-1.1-1.2-3.3-3.3-3.3-5.3.1-2-.8-5.1 1.4-3.6 1 .7 2.5.7 3-.6 0-.2-1.4-1.3-1.6-1.5-.4-.6-.8-1.3-.6-2l1-3.6c.2-1 .2-3.7 2.1-2.3.7.3 1.5 0 1.4-1.4 0 0 1.3-3.5.2-4.6-.4-.3-3.4-3.6-2.4-3.7.6 0 .6 0 3 2 .3.3.7.2 1.1.3.5.3 1 .8 1.3 1.2 2 2 1.2 1.4 2.8 1.5 1.5.1 2.3 1 5.9 4.5 3.6 3.6 5.4 4.5 5.5 6.2.1 1.6-.8 1.7 1.1 3.6 2 1.8 7 6.9 7 6.9Zm-38.5.7-.4.3c-.2.3-.8.9-1.2.5l-1.7-1.8c-.3-.3-.8-.5-.8-1-.2-.8 0-1.5-.5-2.3-.3-.3-1.2-1-.8-1.4.1-.2 2.2-1.9 2.7-1.8 1.3.2 2 3 3.4 4.3.4.4 1 .7 1.4 1.2.3.5-.3.8-.6 1-.7.3-1 .6-1.5 1Zm-18.4-.5s.5 2.5-.3 3.5c-.8.9-2.1 2.7-2.5 1-.5-1.7.2-4 .2-4s2.6-3.2 2.6-.5Zm-2-2.6-1.7 1c-1 .7-1.2 1.8-1.3 2.9-.1.9-.2 2.1-1.4 1.9-1.7-.3-1.5-3.2-1.8-4.8-.2-1.2 1-1.8 2-2 1.4-.2 2.8-.3 4-.9 1.2-.6 2.5-.6 3.7-.8 1-.2 1.3.6.6 1.8-.7 1-1.7 1-2.7.8l-1.4.1Zm-14-10.9c1.1 1.6 1.6 2.7 3.2 3.6 1 .6 2.6-1.8 3.5-1.2.4.2 1 .3 1 .7 0 .3-.5.6-.7.8-.4.4-1.6 1-1 1.7.6.8.7 0-.4 2-1 2 0 4.2.1 5 .3.9.4 2.4 1.6 3.6 1.3 1.2 1.1 1.8-.6 1.5-1.3-.2-2.2.5-3.1 1.4-.5.3-2 1.5-1.5 2.1.6.8 3 2.8 3.9 3.7.9 1-.9 2-1.7 3-.8.9-1.4 1-1.7.8-.4-.2-1.5-.6-2.6-.1-1.2.5-2-1.1-3.4-2.3-1.3-1.2.4-2.4.7-3.2.4-.7 1.1-.6 0-1.9-1.3-1.2-1-2.5-.2-3.5.8-1.1-1-1.2-1.5-3.1-.4-2-4.6-1.6-6-1.8-.8 0-2.7-.3-2.8 0-.3.8 2.3 2 .7 2.6-2.3.7-2.4-.7-2.1-3.4.2-2.6 4.2-1.2 5-1 1 0 3.1.4 3.3-1.5 0-2-4.5-1.4-4.5-1.4-1.6-.2-5 .4-7 1.6-2 1.2-2.3 1.1-3.9-.2s1.4-2 2.3-2.6c1-.5 1.2-.6.2-1.5s-3.2.5-4.4.7c-1.2.1-3.5-1.2-4-2.2-.4-1-.3-1.6-2.1-1.5-1.8 0-1.8 4.2-1.3 4.9.5.7 1 2.6 3.2 3.3 2.3.6 2.4 1 4.4 2.3 2 1.3.8 2 .3 3.4-.6 1.4 1 1.4 1.7 1.3.9 0 5.4 1.4 7.3 1.7 2 .3 2.5-.7 3.7-1.2 1.2-.4 1.8 1.6 1.8 2.1s1 1.6 2 2.6 1.6 1.1 1.4 2.5c-.1 1.3.2.8.6 2.7.4 1.8 1.8 2.6 3.2 4.4 1.5 1.9-2 4.5-2.6 5-.6.6-.9 1.5 0 2 .7.5-1.4 5-1.3 6.5.1 1.4-2.4 3.2-3.2 3.9-.7.7-.7 1.9-.4 2.4.2.6-2.7 2.6-3 3.5-.3 1-2.9-.8-2.9-.8-.4.1-2.3-.8-4.6-.3-2.8.6-3.8-.6-3.8-.6l-9.4-9.1a3.4 3.4 0 0 0-2.7-1c-1 .1-2.5.6-2.7 1.7-.3 1-1.3 2.4-2.5 2.5l-2-.3c-1.8-.4-5.2 2.3-6.8 3.9-1 1-1.9 2.2-2.6 3.6-.3.4-.5.8-.5 1.3-.2.8-.3 1.1-.9 1.6-.8.8-1.5 1.9-2.7 1.3-.8-.3-4.1 1.5-4.1 1.5s-8.2 4-9.8 5c-1.6 1-2.1.4-2.5 0-.4-.4-1-.8-.5-1.5.4-.6-.2-1-.2-1s-.5-.3-2.4-2.3c-2-2-.3-6.4-.3-7.4s0-1.1 1-2c1-1 1-1.2 0-2.3-.9-1 0-1.7 2-3.7 1.8-2 1.4-3.5 1.3-6 0-2.7 6-7 8.1-9 2.2-2 1.8-4.4 1.8-4.4s2-11.2 2-14.6c.1-3.5 2.4-.4 2.4-.4s2.4 2.5 3.7 3.5c1.3 1 4.9-.2 6-.3 1.2-.1 3.6 0 5-1a19 19 0 0 1 3.2-1.9c.4-.1 2.7-.2 4.2-1.4 3.5-2.9-.1-1.6-.1-1.6s-1.3.4-4 0c-2.8-.3-7.7 3-10 3.8-2.4.8-2.3 1-4.8-1.4-2.5-2.3-2.3-9.2-2.7-10.8-.3-1.7.8-2.2 2.1-2.7s2 .5 4 1.8c1.9 1.3 4.4-.2 6.8.3 2.4.5.9-.7-.3-1.6-1.1-1-1.8-.5-2.9-.4-1.2.2-2.3-.2-3.8-2-1.6-1.7-3.3-2-4.1-2-.9.2-2.4-.5-2.4-.5s-2.8-2.7-3.5-2.7c-.7 0-1.5 1.3-3.5-.3s-6.4 1.1-6.4 1.1-5 4.2-7 3.7c-4-.8 1.6-5.3 2.5-6.4.8-1-.5-5.3-1-6.6-.3-.6 0-1.3.4-1.7.2-.4 1-.8 1-1.3 0-.3-.7-1-1-1.2-.6-.4-1-1.6-2.3-.8-1.3.9-3.9.9-3.9.9a4 4 0 0 1-2.2-.7c-.5-.4-1-1.2-1.6-1.4-1-.2-1.8 1.4-2.3 2l-1.7 2c-.8.5-1.7.7-2.5 1.2l-1.5 1s-5.5 2.7-7.3.2c-1.2-1.7 3.8-1.7 6-1.7 2-.1 3.2-1.2 3.9-2.8.6-1.6-1.7-1-4.3-1.6-2.6-.6-1.6-.3-1.3-3.2.2-2.9 3.3-3.7 4-3.7.9 0 4.8-.6 3.5-3.3-1.3-2.6-3.1-4.6-4-5.8-1-1.2.2-2.3.9-6.5.7-4.3 5.5-5.8 7.5-6.4 2-.6 2.9-1.1 3-3.5.1-2.4-3.2-1-3.2-1s-3 .7-6.3 1.2c-3.3.4-1.1-2.5-.8-3.3.3-1 2-.8 3.4-1 1.4-.4 2.1-2.4 2.4-3 .3-.6-1.1-4.6-1.6-5.7-.6-1.2 0-3.5 2.6-7 2.7-3.6-1.4-.8-1.4-.8l-8.2 8.3c-1.2 1.4-1.9 1.9-1.2 4.4.6 2.6 1 2.5 1.7 3.6.6 1 .7 1.6-1.3 3.7-1.9 2.1-1.8 0-1.4-.6.3-.6 1.3-2.4.1-3.3-1.2-1-1.7-3.8-2-5.5-.2-1.8 2.2-3.3 3.3-4.5 1.2-1 1-.6 0-1.7-1-1-.5-.8.3-1.8.7-1.1 1.3-.8 2.3 0 1 1 1.6-.1 1.6-.1s4.3-4.8 5.6-5.7c1.2-.8 4-1 6.6 1.7 2.5 2.9 2-4.9 2-7.5 0-2.6-2.1-2.9-2.1-2.9s-2.3-.7-4.8-2.3c-2.6-1.6 0-2.3.9-3.7.8-1.4-.6-1.8-3.5-2.4-3-.5-1.8 5-2 6-.2 1-3 1.9-6 2.8-2.9 1-.4-1.3.2-2.2.7-1 1.5-1.6 1.2-3-.2-1.3 1.3-1.9 2.9-3.5 1.5-1.6.2-2.5-1.6-4.2-1.8-1.6-1.4-2.5-1.5-3.1-.2-.7.6-1-1.7-4-2.3-2.8 9.6-4.2 10.5-4.2 1 0 8.2 7.8 10.1 9.5 2 1.7 3 .5 3.9.4.8-.1 4.6 4.3 5.4 5 .9.8 3.3 0 4 .5.8.6.4 1.5.5 2.8 0 1.2 1.4-.2 2-.7.7-.5 1.3-.3 2.3.2 1 .5-1 2.4-1.6 3.1-.6.8 5.6 6.3 6.8 7.4 1.2 1.1 2.8.2 4.3-1 1.6-1 1.4 1.5 1.4 1.5l2.7 3s4.9 4.4 6 5.8c1 1.4 1.4-1.5 1.5-3 .2-1.4 4.4.4 5.1.4.7 0 2.8 2.9 3.5 3.2.7.3 1.8-.2 1.7.2 0 .4-.6 1.4-.5 2.4.2.9.9 1.3 1.5 2 .6 1-.1.8 2.5 3.1 2.7 2.4 1.2 4.2 1 5.9 0 1.7 1.4 3 2 3.6.5.7-1 1.7-1.4 2.8-.4 1 2.5.4 3.1.6.7.2-.8 1.5-.8 1.5s-4.2 4.4-4.4 5c-.3.6 4.8-1.7 5.6-2.6.8-.9 3.3-2 3.8-2.2.4-.2.3.6.1 1.8-.1 1-1.7 2.1-2.5 3.2-.8 1 .2 1 1.6 2.5 1.5 1.4 1.3 2.1 1.3 3.2 0 1.2 2.4 3.2 3.7 4.4 1.3 1.2 1.2 2.5 1.7 4.4.4 1.8 1.2.4 3 .1 1.7-.3.3 1.7 0 2.8-.3 1.2 3.8 1.3 5.7 1.5 1.8.1 1.9 1.4 2.4 1.9.6.5 1 1.4 2.5 1 1.6-.4 3 1.2 5.2 2.3 2.3 1 1.6 2.8 2.8 5.2 1.1 2.3.6 3.8.6 3.8l-.9 1.1c-.9 1.1-.7 3.5-.9 5.2-.1 1.7 1.3 3.2 1.7 4.5.4 1.2-2.8 3.3-3.8 4.4-1 1-2-1.4-3.2-2.5-1-1-1.4.4-1.7 1-.2.4.4 1 .3 1.2 0 .1 0 .2-.2.3-.5.2-1.2.1-1.8.3-1.8.4-1.1-1.3-1.1-1.3l.7-5c.4-2 3-1.6 3.2-3.7.3-1.8.2-3.7 0-5.4-.4-2.9-1.5-2.4-2.7-2-1.2.2.7 4-.3 6.7s-2.6-1.2-3.4 1.2c-2 5.2-2.3 6.4-1.1 8.1Zm-6.3-40.7c-1 0-1.9-.2-2.8-.5-.3 0-1.7-.4-.9-.7.6-.3 1.3-.4 1.9-.5 1.2-.1 1.5-.7 2.4-1.5.9-1-.2-3.4-.2-3.4-3.2-9 .9-1.8 1.7-.8a16 16 0 0 1 1.8 2.5c.3.5.2 2.7-.3 4.2-.2.4-.6.7-1 1a2 2 0 0 1-1 0l-1.6-.3Zm-68.4 76.2c.1.8-1.1 1.9-3 3.9-.5.5-5 3.8-4.7 1.5 0 0 .6-3 1.5-4 1-1.1 1.2-3 1.5-4 .4-1 1.4-1.8 3.6-2.7 2.2-.8.6 2.6.6 2.6-.2.6.4 1.8.5 2.7Zm-26.9-48-3.3.3-1.7.1c-.5 0-1.2 0-1.7.2s-1 .8-1.6.8c-.5 0-1-.4-1.2-.7l-4.4-4.3c-8.6-8.3-1.6-2.6-1.1-2.3.4.3 1 1.2 2.3 1.4 1.2.2 4.2 3.4 4.2 3.4s1.1 1.1 1.9 0c.7-1 1-.5 4.8-1.5 3.7-1 2 .6 6.5.5 4.4-.1.8.9-.5 1.3-1.4.5-3.5.7-3.5.7h-.7Zm-13.1-11c-.4.7-.8 1.1-1.5.8-1.4-.8-.9-1-1.2-2.6-.1-.3-.4-1.2 0-1.4.2-.2.7.3 1 .4.3 0 .7 0 .9.2l.9.9c.3.4.4.7.2 1 0 .3-.2.5-.3.7Zm3.7 2.8c-.3-.3-.7-.7-.9-1.2-.2-.4-.1-.8-.2-1.2 0-.7.2-1.2.5-1.6.8-1.3 2-2.3 2.9-3.3 1.7-1.8 1.7-1.2 2.7-1.6.5-.3 1.3 1.4 1.4 2.3.2 1-.8 1.4-1.3 2-.6.6 0 1.4 0 2.1l.4 2.9c.1 1.2-1 1.2-2 1.5l-.7.1c-.5 0-.9-.3-1.2-.6h-.1l-1.5-1.4Zm2-14-2.6.6c-.4.2-1.3.2-1.4-.4-.1-.9.6-1.4 1-1.9 1.2-1 2.6-2.8 3.8-3.2 1.3-.3 2.6.1 3.9 0 1-.2 1.3.2 3.9-1.3 2.6-1.5-.1 1-1.3 2.3-1.1 1.4-3.3 1.3-3.3 1.3-1.8.2-2.4 1.9-4 2.5Zm-19.1 1.4c-.5-.4-1-.6-1.7-.6-.9.1-1.5.6-2.2.7-.5.2-1.3.4-1.7-.2-.3-.6-.3-1.5-1.1-1.4-1.2.2-1.2-.4-1.2-.4 0-.2-.5-2-1.5-2.1-5.8-.5-2.5-1.2-.6-1.4 1.8-.3 5.4.2 7.2.2 1.8 0 3 2.6 4.1 3.5 1.2.9 1.8-.4 3-.5 1.1 0 2.7 2.8 3.5 3 .8.3 1.1.4 1.8-.3.1-.1 1.3-.8 1.2-.3 0 .3-.5.6-.7.8l-.9.9c-.8.6-1-.3-2.5-.6-1.5-.4-2.7.2-3.7.8-.7.5-1.5-.3-2-1l-1-1Zm-32 22.8c.2.1.7.5.5.8-.1.3-.8.1-1 .3-.3.3-1 1.3-2 .5-1-.7-.6-1.4 0-2.5l.5-.4c.3 0 .6.2.8.4l.6.5.6.4Zm31-11.6c.8 1.1 1.1 2.7 1.5 4 .3.8.5 1.8.2 2.6s-1.2 1.6-1.7 2.3c-.5.8 1.8 1.9 2.4 2.6.5.8-.3 1.2-.3 1.7s1.2 1.1 1.8 2c.8 1-1.3 2.3-1.8 3l-1.4 2.3c-.9 1.5-1.5.7-2.3.4-1-.2-2 2-3 2.8-1 .8-2.9.5-3.9.1-.7-.2-1.2-.9-1.7-1.4-.6-.6-1.2-1.1-1.7-1.8-.4-.7-.3-1.5-.5-2.4a5 5 0 0 0-1.8-3.1l-3-2.6c-.6-.5-1.3-1.5-2.1-1-.6.4-1 1-1.6 1.3-1.2.9-1.6-.2-2.4-1-.9-.9-1.6-.2-2.4.2-1.4.7-2.1-.1-3.1-1l-2-2c-1-1.3-.6-3.1-.6-3.1s1-4.1 1.2-5.9c.3-1.8 2.3-4.4 4-6.2 1.8-1.8 6.9-2 6.9-2l8.6-1c1.3 0 1.6-1.1 2.6-1.6.8-.6.3 1.1.7 2 .5.7-2.3 3-2.7 3.3-.3.4.5 1 1.4 1 1-.2 1 .2 2 .4 1 .3 2 0 3-1 1-.9 1.7.5 3 1.6 1.2 1.1.3 1 0 1.8-.3.6 0 1 .4 1.5l.2.2Zm-49.2-.7c0 1-.4 3.8-1.3 3.2-.8-.6-2-1-2-2s.6-1.3-.2-3.1c-.4-1 1-3.5 1-3.5s1-.5 1.8-.6c.7 0 .4 2.2.4 2.9l.3 3Zm-2.3-9.6c.5-1-.5-1.2 0-1.7.6-.6 3.2 0 4.2 0 2 .2-1 1.2-1.2 2-.2.9-.2.9-1.1 1.4-.3 0-1.3.8-1.6.7-1.4-.7-.8-1.4-.3-2.4Z" mask="url(#b)"/>
    <mask id="c" fill="#fff">
      <path d="M294.7 316.3c-1.3-.6.6 1.6 1 2 .3.3.7 1 1.3.7l.5-.5c.5-.4 1.2-.6 0-1.2l-2.8-1ZM91 198.3c2 .1-1 1-1.2 1.9-.3.9-.2 1-1.2 1.4-.2 0-1.3.8-1.6.7-1.4-.7-.8-1.4-.3-2.4s-.5-1.2 0-1.7c.6-.6 3.2 0 4.3 0ZM356.7 356s-4.8 3.2-5.7 2c-1.7-2.3 1.2-2.2 5.1-2.6.3 0 1.7-.1.6.6Zm-54.3-113c.5.3 1 .6 1.5 1.2.3.4-.3.8-.7 1l-1.3 1-.4.3c-.3.3-.8.9-1.2.5l-1.8-1.8c-.2-.4-.7-.5-.7-1-.2-.8 0-1.5-.6-2.3-.2-.3-1.2-1-.8-1.5.2-.2 2.2-1.8 2.7-1.7 1.2.1 2 3 3.3 4.2Zm-21.8 7.2c-.4-1.8.3-4 .3-4s2.6-3.2 2.6-.5c0 0 .4 2.5-.4 3.4-.8 1-2 2.8-2.5 1Zm-17.9-58.5-1.6-.2c-1 0-1.9-.2-2.8-.5-.3 0-1.6-.3-.8-.7.5-.3 1.2-.4 1.8-.4 1.2-.2 1.6-.7 2.4-1.6.9-1-.2-3.4-.2-3.4-3.2-9 1-1.7 1.7-.8a16 16 0 0 1 1.8 2.5c.3.6.2 2.7-.3 4.2-.1.4-.6.7-1 1h-1Zm20.2 51.3-1.5.1-1.6 1c-1 .6-1.2 1.8-1.3 2.9-.1.9-.2 2-1.5 1.9-1.6-.3-1.4-3.2-1.7-4.8-.3-1.2 1-1.8 2-2 1.4-.3 2.8-.3 4-1 1.2-.5 2.4-.5 3.7-.7 1-.2 1.3.6.5 1.8-.6 1-1.6.8-2.6.8Zm25.4 81.2c1.1 2.8-2.7-.7-2.7-.7-.8-.6-1.6-1.3-2.5-1.8l-.8-.4c-.5 0-1 0-1.5-.2-.6-.2-1.1-1.5-1.4-2-1.5-2.4 5.1.9 6.3 1.5 1 .7 1.4.7 2.6 3.6ZM153 208.1l-.3.7c-.4.7-.8 1.1-1.5.8-1.4-.7-.9-.9-1.3-2.6 0-.3-.3-1.2 0-1.4.3-.2.8.3 1 .4.4 0 .8 0 1 .2l.9.9c.3.3.4.6.2 1Zm-64.2-1.7.3 3v.1c0 1-.5 3.7-1.3 3.1-.8-.5-2.1-1-2-2 0-1 .6-1.2-.3-3-.4-1 1-3.5 1-3.5s1-.6 1.9-.6c.7.2.4 2.3.4 3Zm57-6.1c-1.4-.4-2.6.2-3.6.8-.7.5-1.5-.3-2-1l-1-1c-.5-.5-1-.7-1.7-.6-.8 0-1.4.5-2.2.7-.5.1-1.3.3-1.6-.3-.3-.6-.3-1.5-1.2-1.3-1.2.1-1.1-.4-1.1-.4 0-.3-.5-2.1-1.5-2.2-5.8-.5-2.6-1.2-.7-1.4 1.8-.2 5.4.2 7.2.2 1.9 0 3 2.7 4.1 3.5 1.2.9 1.8-.4 3-.5 1.2 0 2.7 2.8 3.5 3 .8.3 1.2.4 1.8-.3.2-.1 1.3-.8 1.2-.2 0 .2-.5.6-.7.7l-.9 1c-.8.5-1-.4-2.6-.7Zm32.8 9.4.4.5c-.6.7-1 1.4-1.7 2-.8.6-1.7.7-2.5 1.3l-1.5 1s-5.5 2.7-7.3.2c-1.2-1.7 3.8-1.7 6-1.8 2 0 3.3-1.1 3.9-2.7.6-1.6-1.7-1.1-4.3-1.6-2.6-.6-1.6-.4-1.3-3.3.2-2.3 2.2-3.3 3.4-3.5 1 3 2.7 5.7 4.9 8Zm-19.4-17c1.2-.3 2.6.1 3.9-.1 1-.1 1.2.3 3.8-1.2 2.7-1.5 0 .9-1.2 2.3s-3.4 1.3-3.4 1.3c-1.8.2-2.4 2-4 2.5l-2.6.7c-.4.1-1.3.2-1.4-.4-.1-.9.6-1.4 1-1.9 1.2-1.2 2.7-2.9 3.9-3.2Zm2.3 16.4.3 2.9c.2 1.2-1 1.2-2 1.5h-.7c-.5 0-.8-.2-1.2-.5l-1.5-1.4c-.4-.3-.7-.7-1-1.2v-1.2c-.2-.8.1-1.2.4-1.6.7-1.3 1.9-2.3 2.8-3.3 1.8-1.8 1.7-1.2 2.7-1.6.6-.3 1.4 1.4 1.5 2.3.1 1-.9 1.4-1.3 2-.7.6-.1 1.3 0 2.1Zm-10.8 4.8c.4.3 1 1.2 2.3 1.4 1.2.2 4.3 3.4 4.3 3.4s1 1.1 1.8 0c.7-1 1.1-.5 4.8-1.5 3.7-1 2 .6 6.5.5 4.4 0 .8.9-.5 1.3-1.3.5-3.5.7-3.5.7h-.7l-3.3.4-1.7.1c-.6 0-1.2 0-1.7.2s-1 .8-1.6.8c-.5 0-1-.4-1.2-.8l-4.5-4.2c-8.4-8.3-1.4-2.6-1-2.3Zm41.5 51.1c-.3.7.3 2 .5 2.8 0 .8-1.1 1.8-3 3.9-.6.5-5.1 3.8-4.7 1.5 0 0 .5-3 1.5-4 1-1.1 1.1-3 1.5-4 .3-1 1.4-1.8 3.6-2.7 2.2-.8.6 2.5.6 2.5Z"/>
    </mask>
    <path stroke="#475566" stroke-opacity=".5" stroke-width="2" d="M294.7 316.3c-1.3-.6.6 1.6 1 2 .3.3.7 1 1.3.7l.5-.5c.5-.4 1.2-.6 0-1.2l-2.8-1ZM91 198.3c2 .1-1 1-1.2 1.9-.3.9-.2 1-1.2 1.4-.2 0-1.3.8-1.6.7-1.4-.7-.8-1.4-.3-2.4s-.5-1.2 0-1.7c.6-.6 3.2 0 4.3 0ZM356.7 356s-4.8 3.2-5.7 2c-1.7-2.3 1.2-2.2 5.1-2.6.3 0 1.7-.1.6.6Zm-54.3-113c.5.3 1 .6 1.5 1.2.3.4-.3.8-.7 1l-1.3 1-.4.3c-.3.3-.8.9-1.2.5l-1.8-1.8c-.2-.4-.7-.5-.7-1-.2-.8 0-1.5-.6-2.3-.2-.3-1.2-1-.8-1.5.2-.2 2.2-1.8 2.7-1.7 1.2.1 2 3 3.3 4.2Zm-21.8 7.2c-.4-1.8.3-4 .3-4s2.6-3.2 2.6-.5c0 0 .4 2.5-.4 3.4-.8 1-2 2.8-2.5 1Zm-17.9-58.5-1.6-.2c-1 0-1.9-.2-2.8-.5-.3 0-1.6-.3-.8-.7.5-.3 1.2-.4 1.8-.4 1.2-.2 1.6-.7 2.4-1.6.9-1-.2-3.4-.2-3.4-3.2-9 1-1.7 1.7-.8a16 16 0 0 1 1.8 2.5c.3.6.2 2.7-.3 4.2-.1.4-.6.7-1 1h-1Zm20.2 51.3-1.5.1-1.6 1c-1 .6-1.2 1.8-1.3 2.9-.1.9-.2 2-1.5 1.9-1.6-.3-1.4-3.2-1.7-4.8-.3-1.2 1-1.8 2-2 1.4-.3 2.8-.3 4-1 1.2-.5 2.4-.5 3.7-.7 1-.2 1.3.6.5 1.8-.6 1-1.6.8-2.6.8Zm25.4 81.2c1.1 2.8-2.7-.7-2.7-.7-.8-.6-1.6-1.3-2.5-1.8l-.8-.4c-.5 0-1 0-1.5-.2-.6-.2-1.1-1.5-1.4-2-1.5-2.4 5.1.9 6.3 1.5 1 .7 1.4.7 2.6 3.6ZM153 208.1l-.3.7c-.4.7-.8 1.1-1.5.8-1.4-.7-.9-.9-1.3-2.6 0-.3-.3-1.2 0-1.4.3-.2.8.3 1 .4.4 0 .8 0 1 .2l.9.9c.3.3.4.6.2 1Zm-64.2-1.7.3 3v.1c0 1-.5 3.7-1.3 3.1-.8-.5-2.1-1-2-2 0-1 .6-1.2-.3-3-.4-1 1-3.5 1-3.5s1-.6 1.9-.6c.7.2.4 2.3.4 3Zm57-6.1c-1.4-.4-2.6.2-3.6.8-.7.5-1.5-.3-2-1l-1-1c-.5-.5-1-.7-1.7-.6-.8 0-1.4.5-2.2.7-.5.1-1.3.3-1.6-.3-.3-.6-.3-1.5-1.2-1.3-1.2.1-1.1-.4-1.1-.4 0-.3-.5-2.1-1.5-2.2-5.8-.5-2.6-1.2-.7-1.4 1.8-.2 5.4.2 7.2.2 1.9 0 3 2.7 4.1 3.5 1.2.9 1.8-.4 3-.5 1.2 0 2.7 2.8 3.5 3 .8.3 1.2.4 1.8-.3.2-.1 1.3-.8 1.2-.2 0 .2-.5.6-.7.7l-.9 1c-.8.5-1-.4-2.6-.7Zm32.8 9.4.4.5c-.6.7-1 1.4-1.7 2-.8.6-1.7.7-2.5 1.3l-1.5 1s-5.5 2.7-7.3.2c-1.2-1.7 3.8-1.7 6-1.8 2 0 3.3-1.1 3.9-2.7.6-1.6-1.7-1.1-4.3-1.6-2.6-.6-1.6-.4-1.3-3.3.2-2.3 2.2-3.3 3.4-3.5 1 3 2.7 5.7 4.9 8Zm-19.4-17c1.2-.3 2.6.1 3.9-.1 1-.1 1.2.3 3.8-1.2 2.7-1.5 0 .9-1.2 2.3s-3.4 1.3-3.4 1.3c-1.8.2-2.4 2-4 2.5l-2.6.7c-.4.1-1.3.2-1.4-.4-.1-.9.6-1.4 1-1.9 1.2-1.2 2.7-2.9 3.9-3.2Zm2.3 16.4.3 2.9c.2 1.2-1 1.2-2 1.5h-.7c-.5 0-.8-.2-1.2-.5l-1.5-1.4c-.4-.3-.7-.7-1-1.2v-1.2c-.2-.8.1-1.2.4-1.6.7-1.3 1.9-2.3 2.8-3.3 1.8-1.8 1.7-1.2 2.7-1.6.6-.3 1.4 1.4 1.5 2.3.1 1-.9 1.4-1.3 2-.7.6-.1 1.3 0 2.1Zm-10.8 4.8c.4.3 1 1.2 2.3 1.4 1.2.2 4.3 3.4 4.3 3.4s1 1.1 1.8 0c.7-1 1.1-.5 4.8-1.5 3.7-1 2 .6 6.5.5 4.4 0 .8.9-.5 1.3-1.3.5-3.5.7-3.5.7h-.7l-3.3.4-1.7.1c-.6 0-1.2 0-1.7.2s-1 .8-1.6.8c-.5 0-1-.4-1.2-.8l-4.5-4.2c-8.4-8.3-1.4-2.6-1-2.3Zm41.5 51.1c-.3.7.3 2 .5 2.8 0 .8-1.1 1.8-3 3.9-.6.5-5.1 3.8-4.7 1.5 0 0 .5-3 1.5-4 1-1.1 1.1-3 1.5-4 .3-1 1.4-1.8 3.6-2.7 2.2-.8.6 2.5.6 2.5Z" mask="url(#c)"/>
  </g>
  <defs>
    <clipPath id="a">
      <path fill="#fff" d="M364 250.2 144.2.8 0 127.8l219.8 249.4z"/>
    </clipPath>
  </defs>
</svg>
