<svg xmlns="http://www.w3.org/2000/svg" width="328" height="347" fill="none">
  <path fill="#fff" fill-rule="evenodd" opacity="0.2"
    d="M251.63 316.92c-12.88 10.87-28.12 21.97-43.6 28.52a15.23 15.23 0 0 1-11.85-28.07c11.31-4.78 23.8-13.59 35.86-23.76 11.9-10.03 22.55-20.7 30.28-28.59 27.6-28.14 38.75-65.31 33.58-114.9-3.78-36.23-25.89-77.14-59.5-103.04-15.99-12.33-35.38-16.3-54-16.37-27.54-.08-50.5 10.08-72.65 24.54a181.26 181.26 0 0 0-51.32 50.71c-7.38 11-14.02 21.42-18.85 32.55-4.8 11.06-7.33 23.84-8.56 38.17-1.8 21.1-1.24 43.42 5.88 64.42 7.45 22 22.97 44.13 42.95 53.63 15.3 7.27 32.45 7.18 45.46 2.91 9.63-3.16 18.38-8 28.43-13.56l4.61-2.55c13.75-7.54 26.5-15.04 37.68-23.93 19.57-15.57 35.67-32.79 44.66-54.58 2.83-6.85 4.43-12.68 4.69-19.73.58-15.85.4-29.78-4.9-43.58-5.24-13.67-14.11-26.9-25.74-35.59-16.18-12.1-33.73-13.45-50.9-10.33-19.52 3.54-36.03 11.66-47.52 24a118.84 118.84 0 0 0-20.71 30.9c-7.44 15.9-14.11 31.19-17.29 47.3a84.18 84.18 0 0 0-.9 25c.77 7.42 1.8 12.4 4.48 16.49 8.04 12.27 18.65 16.05 27 14.52 6.26-1.15 14.74-4.79 24.33-9.96a434.36 434.36 0 0 0 19.72-11.52l6.17-3.74c26.85-16.06 33.7-42.27 29.22-58.72-4.06-14.88-9.7-16.25-11.36-16.49-3.48-.48-9.76 1.4-16.23 7.6-6.4 6.13-9.34 13.06-9.38 17.17-.02 1.63.4 2.49.95 3.15.66.8 2.6 2.52 7.65 3.84a15.25 15.25 0 0 1 10.9 18.58 15.18 15.18 0 0 1-18.53 10.9c-9.45-2.46-17.54-6.9-23.27-13.71a34.85 34.85 0 0 1-8.1-23.08c.15-15.02 8.73-29.27 18.75-38.87 10.01-9.6 25.14-18.03 41.44-15.75 18.11 2.54 30.6 17.01 36.5 38.65 8.35 30.65-5.3 70.38-42.94 92.9-1.63.97-3.46 2.08-5.43 3.28-6.2 3.78-13.87 8.45-21.63 12.64-10.08 5.43-22.06 11.05-33.28 13.1-22.74 4.16-44.57-7.47-57.89-27.78-7.02-10.71-8.49-22.2-9.3-30.08a114.63 114.63 0 0 1 1.3-34.05c3.97-20.12 12.14-38.38 19.6-54.32a149.23 149.23 0 0 1 26-38.75c16.93-18.19 39.93-28.75 64.3-33.18 22.54-4.09 49.5-2.8 74.5 15.9 17.24 12.87 29.15 31.31 35.97 49.08 7.7 20.05 7.5 39.45 6.9 55.66-.44 11.68-3.23 21.15-6.97 30.23-11.79 28.55-32.31 49.66-53.84 66.78-13.3 10.59-27.96 19.1-41.98 26.8l-4.28 2.36c-9.85 5.47-21.32 11.84-33.9 15.97-19.62 6.45-44.9 6.62-67.96-4.34C36.88 308 17.14 277.52 8.11 250.87-.9 224.25-1.24 197.2.73 174.05c1.38-16.12 4.37-32.5 10.97-47.71 6.03-13.89 14.04-26.28 21.5-37.4a211.65 211.65 0 0 1 59.94-59.21C117.9 13.56 146.7.13 182.48.25c22.5.07 49.31 4.86 72.44 22.68 39.98 30.81 66.54 79.2 71.21 124.05 5.87 56.27-6.67 103.27-42.12 139.4-7.86 8.02-19.34 19.54-32.38 30.54Z"
    clip-rule="evenodd" />
</svg>