<svg xmlns="http://www.w3.org/2000/svg" width="527" height="388" fill="none">
  <path fill="#fff" fill-rule="evenodd" opacity=".2"
    d="M399.65 437.85c-21.54 18.16-47.02 36.7-72.9 47.64a25.41 25.41 0 0 1-33.3-13.55 25.44 25.44 0 0 1 13.5-33.33c18.92-8 39.8-22.7 59.95-39.69 19.88-16.76 37.69-34.57 50.62-47.75 46.14-47 64.77-109.09 56.12-191.9-6.3-60.52-43.27-128.85-99.45-172.1-26.73-20.58-59.14-27.24-90.25-27.33-46.05-.15-84.43 16.83-121.46 40.98a302.87 302.87 0 0 0-85.77 84.7c-12.35 18.36-23.45 35.76-31.53 54.36-8.02 18.46-12.25 39.81-14.3 63.74-3 35.25-2.08 72.52 9.82 107.6 12.47 36.73 38.41 73.7 71.8 89.56 25.59 12.16 54.24 12 75.99 4.87 16.1-5.28 30.72-13.36 47.52-22.65l7.71-4.25c22.99-12.6 44.3-25.12 63-39.98 32.7-26 59.61-54.76 74.64-91.15 4.72-11.44 7.4-21.18 7.83-32.96.98-26.46.69-49.73-8.17-72.79-8.77-22.83-23.6-44.9-43.05-59.43-27.04-20.2-56.37-22.46-85.07-17.25-32.63 5.91-60.23 19.46-79.43 40.07a198.44 198.44 0 0 0-34.62 51.63c-12.44 26.54-23.6 52.07-28.9 78.98-2.54 12.89-3.05 26.79-1.5 41.77 1.28 12.38 3 20.7 7.47 27.53 13.45 20.49 31.18 26.8 45.13 24.26 10.48-1.92 24.64-8 40.69-16.65 11.68-6.3 22.8-13.05 32.95-19.23 3.56-2.17 7-4.26 10.32-6.24 44.88-26.82 56.33-70.6 48.84-98.09-6.78-24.84-16.22-27.14-19-27.53-5.8-.8-16.3 2.33-27.12 12.7-10.69 10.23-15.6 21.8-15.67 28.67-.03 2.72.65 4.16 1.58 5.26 1.11 1.32 4.35 4.21 12.79 6.41a25.47 25.47 0 0 1 18.21 31.03 25.38 25.38 0 0 1-30.97 18.21c-15.79-4.11-29.32-11.51-38.9-22.9-9.75-11.6-13.66-25.3-13.53-38.54.24-25.1 14.6-48.88 31.34-64.93 16.74-16.02 42.02-30.1 69.27-26.3 30.28 4.24 51.16 28.42 61.02 64.56C356.83 227.04 334 293.39 271.08 331c-2.72 1.63-5.77 3.49-9.07 5.5-10.36 6.3-23.19 14.1-36.16 21.1-16.85 9.07-36.88 18.45-55.63 21.88-38.01 6.95-74.5-12.48-96.76-46.4C61.72 315.2 59.26 296 57.9 282.85c-2-19.36-1.44-38.4 2.2-56.87 6.62-33.6 20.27-64.11 32.74-90.73a249.26 249.26 0 0 1 43.46-64.72c28.31-30.38 66.76-48.02 107.5-55.41 37.66-6.83 82.73-4.68 124.53 26.54 28.8 21.5 48.72 52.3 60.12 81.98 12.87 33.5 12.53 65.88 11.52 92.95-.72 19.52-5.38 35.34-11.65 50.5-19.69 47.69-54 82.94-90 111.55-22.23 17.67-46.72 31.89-70.17 44.74l-7.14 3.95c-16.47 9.14-35.64 19.78-56.66 26.67-32.81 10.77-75.05 11.06-113.6-7.25-50.08-23.79-83.07-74.7-98.16-119.21-15.09-44.46-15.64-89.65-12.34-128.3 2.3-26.93 7.3-54.3 18.33-79.7C8.66 96.37 22.06 75.67 34.54 57.09A353.65 353.65 0 0 1 134.72-41.8c41.38-27 89.55-49.42 149.33-49.23 37.63.11 82.43 8.11 121.1 37.88C471.98-1.7 516.37 79.12 524.18 154.02 534 248 513.03 326.5 453.78 386.86c-13.14 13.38-32.33 32.61-54.13 51Z"
    clip-rule="evenodd" />
</svg>