<svg xmlns="http://www.w3.org/2000/svg" width="180" height="180" fill="none">
  <g clip-path="url(#a)">
    <path fill="#fff" d="M179.96 138.92c.15-14.78-5.87-31.7-21.13-36.8.38-28.83-16.58-41.1-42.71-35.42.86-8.08 1.2-16.17-.1-24.3-1.9-10.53-9.2-15.09-19.58-12.99-5.87.93-3.54 9.83 2.03 7.75 21.48-8.5 6.38 42.86 5.33 52.45-.4 3.76-2.43 11.36-1.67 16.64-22.9-.91-45.76-3.53-68.7-4.48-7.15.28-6.84 11.24.4 11.01 14.4-.53 30.76.04 45.32.42 21.62.68 43.47.78 65.04-1.25 3.47-.24 7.29-.72 10.8-1.03 17.74 3.89 18.55 25.59 17.88 40.43-7.33-.7-14.66.32-21.94.2-.3 0-.73-.03-1.17-.05l-.12-.66c-3.23-22.04-36.05-16.73-37.86 2-1.53.24-3.05.58-4.31.56-7.36.5-14.8.28-22.14.13-2.92-.1-6.52-.27-9.4-.49-3.58.28-9.25-1.67-13.43-1.35-2.31-9.5-13.7-14.32-22.87-11.93-7.43 1.53-12.76 7.74-14.24 14.88-10.8-.22-16.25-13.24-14.39-23.03.53-14.6-.65-28.83-.55-43.24.03-4.7.2-9.34.63-13.92a5.51 5.51 0 1 0-10.99-.68C-.09 78.76.01 83.7.25 88.6c.72 14.34 2.81 28.76 3.15 42.93-.86 10.66 3.9 22.9 14.4 27.07a23.6 23.6 0 0 0 7.22 1.29c.1 1.37.33 2.74.73 4.1 6.7 17.82 31.1 13.67 36.3-1.5 4.26.79 10.26-.73 13.79-.4 3.2-.19 9.62-.58 12.82-.8 4.41-.29 14.76-1.18 19.06-1.1 1.42-.05 3.27.21 5.05.28 1 2.82 2.56 5.47 4.57 7.67 10.76 11.15 29.55 3.21 32.3-10.42 6.25.32 12.5-.34 18.67-.11 3.93-.13 10.3 2.84 11.1-2.96.4-5.14.7-10.36.55-15.73Zm-47.7-32.73c-6.35.34-12.68.43-19 .36.03-1.1-.15-2.24-.5-3.34-.24-2.34-.16-4.7-.02-7.15.4-7.4 1.53-14.78 2.5-22.18 1.83.05 3.65.09 5.47.18 21.4.6 26.39 9.26 28.09 29.45.02.22.06.45.1.68-.64.15-1.25.26-1.8.3-4.92.8-9.88 1.35-14.85 1.7ZM56.8 156.8c-.91 6.68-8.88 8.08-14.47 7.8-5.45-.08-9.11-4.12-8.22-9.56 1.42-12.53 24.53-12.1 22.7 1.76Zm86.04 2.44c-1.78 4.39-6.5 7.18-11.14 7.28-2.66.1-5.6-.72-7.52-2.56-3.43-3.28-4.84-9.67-.72-13 7.89-6.8 24.14-5.73 19.38 8.28Z"/>
    <path fill="#1951E7" d="M83.05 4.85a3.15 3.15 0 0 0-4.55 1.14c-1.74 2.53-3.68 5.42-5.41 7.98-5.32 7.92-10.65 15.87-16.4 23.45-16.8 20.5-16.33 27.72-38.84 6.93a90.65 90.65 0 0 0-9.07-7.08c-2.8-1.93-6.4 1.88-4.2 4.58 13.17 20.3 35.12 40.96 51 10.33l2.7-3.83c7.55-10.57 11.67-17.38 18.53-28.4 2.3-3.63 4.6-7.26 7.04-10.8a3.1 3.1 0 0 0-.8-4.3Z"/>
  </g>
  <defs>
    <clipPath id="a">
      <path fill="#fff" d="M0 0h180v180H0z"/>
    </clipPath>
  </defs>
</svg>
