<svg xmlns="http://www.w3.org/2000/svg" width="41" height="40" fill="none">
  <g clip-path="url(#a)">
    <path fill="#A8ABBE" d="M1.1 14.36C4.45 1.4 20.72-3.94 31.66 3.16a17.59 17.59 0 0 1 7.2 9.86c.43 1.1.94 2.89 1.12 4.28a17.9 17.9 0 0 1-2.85 12.95c-.7.93-2.07-.02-1.44-1a13.46 13.46 0 0 0 2.04-3.6 16.97 16.97 0 0 0-.27-12.14 16.99 16.99 0 0 0-2.56-5.14C29.13.47 16.8-.1 9.37 5.73a16.32 16.32 0 0 0-5.93 9.23 1.2 1.2 0 1 1-2.34-.6Z"/>
    <path fill="#A8ABBE" d="M30.87 36.14c-4.44 4-10.68 4.83-16.22 2.77C7.04 36.06 1.12 28.5.81 20.3c-.07-1.97.22-3.95.8-5.82a.68.68 0 1 1 1.32.37 15.28 15.28 0 0 0-.7 5.37c.27 5.46 3.37 10.7 7.82 13.83a20.08 20.08 0 0 0 4.78 2.46c2.06.72 4.25 1.15 6.44 1.12 3.12-.03 6.05-1 8.78-2.57.71-.42 1.43.51.82 1.1Z"/>
    <path fill="#F77A09" d="M29.15 16.52c-.96.1-1.9.16-2.87.11-1.14-.05-2.34-.32-3.06-1.3-.3-.4-.5-.89-.67-1.34-.3-.91-.54-1.8-.86-2.68-.15-.43-.31-.86-.49-1.28l.26.28a2.06 2.06 0 0 0-.8-.27c-.8-.05-1.1 1.36-1.28 2-.4 1.38-.67 3.6-2.35 4.1l.12-.06c-.24.13-.5.22-.75.28-1.13.27-2.3.02-3.42 0-.4-.01-.8.02-1.12.12l.11-.05c-.3.17-.58.36-.78.56-.13.15-.2.24-.23.4-.01.08 0 .15.04.23.09.18.22.33.38.5 1.23 1.2 3.88 2.2 4.5 3.85.03.09.05.18.04.26l-.02.41-.05.4c-.1.74-.35 1.53-.57 2.21-.27.85-.54 1.7-.54 2.55l-.01-.17.08.33c.05.13.08.2.15.26H15c.13 0 .3-.07.46-.14 1-.46 1.96-1.32 2.84-2.04.3-.26.56-.48.94-.69l-.1.06c.2-.14.46-.28.74-.36 1.59-.53 3.04.65 4.15 1.6.45.38.92.77 1.4 1.03.2.1.38.16.5.18a.6.6 0 0 0 .35-.06l-.11.06c.13-.08.22-.16.27-.21a.35.35 0 0 0 .09-.16c.05-.27-.05-.62-.16-.93l.12.22a12.1 12.1 0 0 1-.64-1.18c-1.25-2.74-.36-4.71 2-6.36.67-.49 1.36-.92 2.05-1.37l-.13.12c.44-.45 0-1.42-.62-1.47Zm-.09-1.36c.9-.05 1.73.57 2.08 1.36.39.8.33 1.93-.37 2.56-.65.47-1.3.94-1.9 1.45-.73.63-1.53 1.39-1.6 2.37-.04.6.21 1.2.5 1.75.18.3.37.6.59.9.05.07.08.15.1.23.35.8.56 1.84.17 2.73-.22.57-.75 1.1-1.23 1.38-.97.55-2.18.42-3.1-.08-1.21-.62-2.1-1.7-3.22-2.36a1 1 0 0 0-.42-.14c-.09 0-.11.02-.2.08-.12.06-.23.14-.35.23-1.33 1-2.82 2.4-4.53 2.75-1.68.31-2.78-.83-2.96-2.44a6.2 6.2 0 0 1 .28-1.9c.36-1.33 1.04-2.54 1.13-3.88l.07.43c-.01-.03-.04-.1-.1-.18-.49-.62-1.23-1.07-1.89-1.55-.87-.62-1.8-1.2-2.45-2.14a2.18 2.18 0 0 1-.2-2.12 3.76 3.76 0 0 1 1.72-1.6 4.26 4.26 0 0 1 1.85-.25c.49.03.94.08 1.36.12.73.06 1.52.16 2.11-.15.1-.05.2-.05.3-.12.28-.2.42-.53.58-.91.38-.94.59-2.12 1-3.14.17-.42.38-.83.72-1.2.84-.9 2.02-.78 3-.23.16.09.28.23.34.38.37.9.67 1.82.94 2.73.2.66.36 1.3.64 1.89.15.31.35.6.64.79 1 .65 3.2.37 4.4.26Z"/>
  </g>
  <defs>
    <clipPath id="a">
      <path fill="#fff" d="M.5 0h40v40H.5z"/>
    </clipPath>
  </defs>
</svg>
