<svg xmlns="http://www.w3.org/2000/svg" width="49" height="51" fill="none"><path fill="#fff" fill-rule="evenodd" d="M22.28 21.37a16.51 16.51 0 0 0-4.39 3.5c-2.77 3.2-3.96 6.6-4.23 10.71-.33 5.1 1.58 15.01 8.88 14.88 2.87-.06 5.22-2.34 6.3-5.02 1.09-2.7 2.35-4.98 3.94-5.9 1.59-.91 4.2-.86 7.08-.46 2.87.4 6-.49 7.49-2.95C51.1 29.88 43.49 23.27 38.9 21c-3.68-1.82-7.22-2.48-11.37-1.68-1.82.35-3.6 1.07-5.25 2.05Zm13.7-15.74c6.67-2.17 9.6 10.6 3.31 12.9-4.11 1.49-7.85-4.27-6.27-9.52.34-1.17 1.28-2.83 2.95-3.38ZM21.62 1.06c3.74-.84 7.42 2.5 8.55 6.74.52 1.94.56 3.85.1 5.5-.44 1.56-1.64 3.73-3.92 4.27-5.6 1.33-10.36-6.3-8.75-12.18.46-1.66 1.71-3.8 4.02-4.33ZM1.8 25.36c-5.22 4.7 4.37 13.62 9.5 9.32 3.35-2.81.24-8.93-5.1-10.2-1.18-.28-3.1-.3-4.4.87Zm3.22-14.72c-2.6 2.82-1.54 7.69 1.56 10.78a10.59 10.59 0 0 0 4.7 2.84c1.57.4 4.06.44 5.67-1.26 3.94-4.19-.28-12.12-6.19-13.67-1.66-.43-4.15-.42-5.74 1.31Z" clip-rule="evenodd" opacity=".6"/></svg>