<svg xmlns="http://www.w3.org/2000/svg" width="344" height="355" fill="none">
  <path fill="#fff" fill-rule="evenodd" d="M157.37 146.72c-11.83 6.62-22.77 15.14-31.39 25.07-19.79 22.87-28.33 47.12-30.28 76.52-2.34 36.5 11.33 107.34 63.52 106.36 20.52-.4 37.33-16.67 45.08-35.9 7.75-19.22 16.75-35.55 28.12-42.11 11.37-6.57 30.01-6.2 50.62-3.34 20.52 2.9 42.94-3.48 53.54-21.05 26.94-44.73-27.57-92-60.35-108.2-26.38-13.03-51.63-17.77-81.35-12.06-13 2.52-25.76 7.71-37.49 14.7h-.02Zm97.9-112.58c47.77-15.53 68.71 75.8 23.74 92.21-29.42 10.7-56.17-30.46-44.89-68.06 2.48-8.31 9.16-20.2 21.16-24.15ZM152.7 1.5c26.75-6 53.1 17.9 61.14 48.2 3.72 13.88 4.04 27.53.74 39.3-3.13 11.15-11.71 26.68-28.03 30.52-40.06 9.5-74.05-45.05-62.57-87.11C127.3 20.55 136.2 5.22 152.7 1.5ZM11 175.18c-37.33 33.6 31.25 97.43 67.92 66.7 23.97-20.12 1.7-63.88-36.42-72.95-8.44-2-22.16-2.13-31.5 6.25ZM34.02 70c-18.57 20.17-11.05 54.95 11.18 77.06 10.15 10.15 21.81 17.25 33.58 20.33 11.22 2.86 29.04 3.15 40.52-9.07 28.2-29.9-1.98-86.65-44.23-97.69-11.85-3.1-29.66-3-41.05 9.37Z" clip-rule="evenodd" opacity=".06"/>
</svg>
