<svg xmlns="http://www.w3.org/2000/svg" width="53" height="50" fill="none">
	<path fill="#1951E7" fill-rule="evenodd" transform="scale(-1 1) translate(-53)"
		d="M41.53.79a4.24 4.24 0 0 1 4.64 3.8c.6 6.06 2.68 12.15 5.43 18a4.24 4.24 0 0 1-7.67 3.6c-2.99-6.34-5.47-13.4-6.2-20.76a4.24 4.24 0 0 1 3.8-4.64Zm-27.8 13.2a4.24 4.24 0 0 1 5.98-.3c1.86 1.7 3.61 3.36 5.34 4.98 4.05 3.84 7.9 7.47 12.28 10.71a4.24 4.24 0 1 1-5.05 6.82c-4.8-3.56-9.24-7.75-13.45-11.72-1.64-1.55-3.24-3.07-4.82-4.5a4.24 4.24 0 0 1-.29-6ZM1.08 37.25a4.24 4.24 0 0 1 5.41-2.6 500.87 500.87 0 0 0 20 6.64A4.24 4.24 0 1 1 24 49.4a509.26 509.26 0 0 1-20.33-6.74 4.24 4.24 0 0 1-2.59-5.41Z"
		clip-rule="evenodd" />
</svg>