<svg xmlns="http://www.w3.org/2000/svg" width="41" height="40" fill="none">
  <g clip-path="url(#a)">
    <path fill="#A8ABBE" d="M34.77 9.06c4 4.41 2.9 9.07 3.76 14.72.15.68 1.11.73 1.34.06a14.02 14.02 0 0 0-.12-8.75 16.74 16.74 0 0 0-2.48-5.03 33.72 33.72 0 0 0-2.01-2.43c.15-.58.26-1.18.29-1.79.16-4.8-2.28-6.1-6.68-5.73-3.47-.14-6.91.19-10.35.57-4.35.18-12.9-2.16-12.25 4.97C7.34 10 3.1 11.84 1.3 15.23c-.51 1-1.4 3.18-.24 3.87.04 1.15.05 2.3.05 3.47-.76 14.89.21 17.48 15.9 17.38 5-.05 10.1.22 15.01-.92 3.4.1 8.4-4.29 8.17-7.86a.87.87 0 1 0-1.74-.08c-.1 3.3-3.8 6.97-7.18 6.28-.7-.38-.79-1.4-.84-2.18.56-5.94-.7-12.15.37-18.46.92-2.56 2.87-5 3.96-7.67Zm-5.91 10.82c.01 5.17.46 10.2.13 15.37a5.2 5.2 0 0 0 .7 2.5c-4.12.03-8.3-.23-12.4-.2-3.03.13-6.1.3-9.1-.13-7-.39-5.62-8.29-5.68-13.32 0-1.68-.02-3.37-.09-5.05.28-.22.46-.55.47-.92.35-3.63 4.48-5.47 5.43-8.96.04-.12.08-.25.1-.37 6.54.3 13.18-.26 19.69.1 1.65.08 1.71-2.42.04-2.4-6.52.1-13.11 1.56-19.6.58-.03-.41-.08-.82-.12-1.21-1.17-4.76 5.52-3.25 8.37-3.24 4.02-.08 8.04-.97 12.08-.76 1.61.01 4.04-.47 4.66 1.46 1.84 6.1-5.18 10.33-4.68 16.55Z"/>
    <path fill="#1951E7" d="M18.58 17.76c-1.59-.06-2.5 2.22-1.34 3.29 2.44 1.89 4.36-3.11 1.34-3.29Zm3.85 4.27c-3.15-1.8-3.88 4.35-.5 3.7 1.4-.5 1.73-2.84.5-3.7Zm-11.98-.15c-1.4-.43-2.52.78-2.2 2.16.43 2.38 3.32 1.98 3.31-.37.05-.78-.32-1.53-1.1-1.8Zm4.65-2.96c-.56-2.03-3.87-1.2-3.56.82.21 3.08 4.37 1.93 3.55-.82Zm.5 4.99c-2.92.74-5.82 5.3-2.33 7.2 1.69.76 3.6.16 5.22-.48.77-.35.96-1.24.84-1.99-.35-1.78-1.76-4.45-3.72-4.73Z"/>
  </g>
  <defs>
    <clipPath id="a">
      <path fill="#fff" d="M.5 0h40v40H.5z"/>
    </clipPath>
  </defs>
</svg>
