<svg xmlns="http://www.w3.org/2000/svg" width="326" height="285" fill="none">
  <path fill="#fff" fill-opacity=".2"
    d="M12.62 8.2C-4.28 6.53-2.4-4.14 7.85-14.57c19.7-20.06 46.81-28.49 66.24-29.82 12.65-.86 21.2 4.37 24.44 15.64 2.48 8.64-.75 20.93-8.49 33.75-10.58 17.52-29.33 37.4-35.53 47.37-.27.42-.55 1-.83 1.7 3.63-2.13 7.7-5.12 12.14-8.25 22.04-15.5 47.86-38.93 62.12-46.84 3.84-2.12 28.42-16.1 38.91-17.17 9.22-.93 15.12 3.03 18.3 7.78 3.97 5.94 4.94 13.1 2.5 20.94-3.66 11.82-18.83 27.02-23.38 32.7-18.34 22.67-38.05 43.8-56.4 66.21a451.9 451.9 0 0 0-21.84 28.65c-1.49 2.14-8.36 10.7-13.15 19.48-.33.6-.67 1.3-1 2.03 2.88-.96 5.67-2.61 8.4-4.45 11.36-7.64 21.35-19.6 28.88-26.97 21.12-20.68 41.28-42.79 62.86-63.25 14.9-14.13 30.45-27.52 47.54-39.06 9.85-6.96 36.67-24.4 58.2-30.01 16.82-4.4 31-1.01 39.7 9.47 6.98 8.4 7.81 20.45 3.97 33.65-5.37 18.43-21.59 39.74-28.21 47.4a441.21 441.21 0 0 1-40.82 40.59c-20.6 17.92-42.8 34.23-62.05 53.28a255.63 255.63 0 0 0-21.71 24.05c-3.28 4.24-15.37 18.63-23.89 33.23-2.33 3.99-2.8 9.48-3.83 13.33 1.38-.28 2.8-.67 4.2-.98 7.52-1.7 14.9-5.24 19.98-8 18.6-10.08 33.91-19.68 48.25-30.8 14.03-10.87 27.05-23.24 41.39-38.83l35.81-34.16c21.99-21.9 48.42 5.15 27.68 26.02l-34.9 33.86c-16.46 16.81-31.41 30.03-47.35 41.65-16.16 11.8-33.28 22.01-54.09 32.58-9.05 4.62-23.07 10.36-36.23 11.76-12.47 1.33-24.23-.97-33.05-8.1-7.97-6.45-11.56-17.69-7.42-32.13 5.92-20.68 29.59-52.58 34.72-59.66 10.59-15.02 22.84-28.7 35.96-41.7 17.41-17.27 35.92-33.75 54.69-49.71 11.98-10.2 24.33-19.85 35.45-30.7a142.2 142.2 0 0 0 16.05-18.53c3.33-4.67 6.6-9.59 8.5-14.43.61-1.58 1.24-3.08 1.46-4.56.4-2.7-2.16-1.82-4.63-2.02-5.34.58-11.32 2.36-17.23 4.76-14.83 6-29.35 15.18-35.83 19.4-15.87 10.75-30.37 23.17-44.13 36.4-21.32 20.5-40.96 42.86-61.69 63.69-9.95 10.03-24.09 26.82-39.7 35.12-9.47 5.04-19.52 7.22-29.71 5.4-12.56-2.22-17.44-9.8-18.07-19.69-.33-5.13 1.25-11.67 4.28-18.36 5.16-11.4 14.64-23.88 16.52-26.69A471.08 471.08 0 0 1 84.55 91.6c16.87-21.23 35.02-41.31 52.07-62.6-16.89 11.34-43.1 34.8-63.5 46.88-10.86 6.43-20.78 9.85-28.02 9.78-12.79-.1-18.92-6.21-21.8-13.77-1.5-3.95-2-8.79-1.17-13.92 1.17-7.36 4.98-15.6 8.03-20.3 5.62-8.63 20.9-24.64 32.12-40.15 3.7-5.1 10.84-12.1 8.88-14.7C69.21-19.78 32.3 1.09 32.3 1.09c-2.14 1.24-5.42 3.38-8.57 4.82-.77.49-1.62.93-2.56 1.3-2.5 1-6.97 1.16-8.55 1Z" />
</svg>